<?xml version="1.0" encoding="utf-8"?>
<!-- Generator: Adobe Illustrator 22.1.0, SVG Export Plug-In . SVG Version: 6.00 Build 0)  -->
<svg version="1.1" id="Layer_1" xmlns="http://www.w3.org/2000/svg" xmlns:xlink="http://www.w3.org/1999/xlink" x="0px" y="0px"
	 viewBox="0 0 40 40" style="enable-background:new 0 0 40 40;" xml:space="preserve">
<style type="text/css">
	.st0{fill:#FFFFFF;}
</style>
<g>
	<path class="st0" d="M20,23c2.8,0,5-2.2,5-5s-2.2-5-5-5s-5,2.2-5,5S17.2,23,20,23z M20,15c1.7,0,3,1.3,3,3s-1.3,3-3,3s-3-1.3-3-3
		S18.3,15,20,15z"/>
	<path class="st0" d="M24,25h-8c-3.9,0-7,3.1-7,7v6c0,0.6,0.4,1,1,1s1-0.4,1-1v-6c0-2.8,2.2-5,5-5h8c2.8,0,5,2.2,5,5v6
		c0,0.6,0.4,1,1,1s1-0.4,1-1v-6C31,28.1,27.9,25,24,25z"/>
	<path class="st0" d="M11,11c2.8,0,5-2.2,5-5s-2.2-5-5-5S6,3.2,6,6S8.2,11,11,11z M11,3c1.7,0,3,1.3,3,3s-1.3,3-3,3S8,7.7,8,6
		S9.3,3,11,3z"/>
	<path class="st0" d="M12,14c0-0.6-0.4-1-1-1H7c-3.9,0-7,3.1-7,7v6c0,0.6,0.4,1,1,1s1-0.4,1-1v-6c0-2.8,2.2-5,5-5h4
		C11.6,15,12,14.6,12,14z"/>
	<path class="st0" d="M29,11c2.8,0,5-2.2,5-5s-2.2-5-5-5s-5,2.2-5,5S26.2,11,29,11z M29,3c1.7,0,3,1.3,3,3s-1.3,3-3,3s-3-1.3-3-3
		S27.3,3,29,3z"/>
	<path class="st0" d="M33,13h-4c-0.6,0-1,0.4-1,1s0.4,1,1,1h4c2.8,0,5,2.2,5,5v6c0,0.6,0.4,1,1,1s1-0.4,1-1v-6
		C40,16.1,36.9,13,33,13z"/>
</g>
</svg>
