<?xml version="1.0" encoding="utf-8"?>
<!-- Generator: Adobe Illustrator 22.1.0, SVG Export Plug-In . SVG Version: 6.00 Build 0)  -->
<svg version="1.1" xmlns="http://www.w3.org/2000/svg" xmlns:xlink="http://www.w3.org/1999/xlink" x="0px" y="0px"
	 viewBox="0 0 40 40" style="enable-background:new 0 0 40 40;" xml:space="preserve">
<style type="text/css">
	.st0{display:none;}
	.st1{display:inline;fill:none;stroke:#000000;stroke-width:0.1;stroke-miterlimit:10;}
	.st2{fill:#FFFFFF;}
</style>
<g id="Layer_2" class="st0">
	<path class="st1" d="M-49.3,36.9c0.1,0.4,0,1-0.2,1.4l-0.3,0.5c-0.2,0.4-0.4,1.1-0.3,1.5l0,0.3c0.1,0.5-0.1,1.2-0.3,1.5L-51,43
		c-0.3,0.4-0.8,0.8-1.3,0.9l-0.3,0.1c-0.4,0.1-0.8,0.5-0.8,0.9c0,0.4-0.2,1-0.4,1.4l-0.4,0.8c-0.2,0.4-0.7,0.7-1.1,0.8
		c-0.4,0-0.7,0.2-0.7,0.5c0,0.3-0.2,0.7-0.5,1.1l-1.2,1.5c-0.3,0.4-0.6,1-0.6,1.5l0,0c0,0.5-0.2,1.2-0.4,1.6
		c-0.2,0.4-0.2,1.1,0.1,1.5l0,0c0.2,0.4,0.2,1,0,1.3c-0.2,0.3-0.7,0.3-1-0.1l-0.7-0.7c-0.3-0.3-0.5-1-0.5-1.4l1.2-12.3
		c0-0.5-0.2-1.1-0.6-1.4l-0.5-0.4c-0.4-0.3-0.7-0.9-0.8-1.4l-0.2-0.9c-0.1-0.5-0.4-1.1-0.7-1.5l0,0c-0.3-0.3-0.5-1-0.3-1.4l1.1-3.7
		c0.1-0.4,0.6-0.9,1-1.1l0.6-0.2c0.4-0.1,1.2-0.1,1.6,0.1l0.6,0.3c0.4,0.2,1.1,0.6,1.4,0.9l0.1,0.1c0.3,0.3,0.8,0.6,1.1,0.7
		c0.3,0,0.7,0.4,0.9,0.8l0.8,1.2c0.2,0.4,0.8,0.8,1.3,1l1.9,0.6C-49.9,36.1-49.4,36.5-49.3,36.9z M-62.5,31.5
		c0.1-0.2-0.1-0.5-0.5-0.7l-0.1,0c-0.4-0.2-0.7-0.8-0.6-1.2c0.1-0.4-0.2-0.8-0.5-0.9c-0.3-0.1-0.6-0.5-0.5-1l0.1-0.3
		c0.1-0.5-0.1-0.9-0.3-0.9c-0.3,0-0.6,0.2-0.7,0.5c-0.1,0.3-0.4,0.6-0.7,0.6c-0.3,0-0.7-0.2-0.9-0.4c-0.2-0.2-0.4-0.8-0.4-1.2l0-0.3
		c0-0.5,0.1-1.1,0.4-1.5c0.3-0.4,0.8-0.7,1.3-0.8l0.9-0.1c0.5-0.1,1,0.2,1.3,0.6l0.2,0.3c0.2,0.4,0.6,0.7,0.8,0.7
		c0.2,0,0.3-0.4,0.2-0.8l0-0.4c0-0.5,0.2-1.1,0.5-1.5l0.5-0.6c0.3-0.4,0.6-0.9,0.6-1.2c0-0.3,0.3-0.9,0.6-1.2l1.8-1.9
		c0.3-0.3,0.5-0.9,0.4-1.3c-0.1-0.4,0.2-0.8,0.6-0.9l0.1,0c0.4-0.1,1.1,0.1,1.4,0.4l0.2,0.2c0.3,0.4,0.7,0.6,1,0.5
		c0.3-0.1,0.3-0.4,0.1-0.8c-0.2-0.3-0.3-1-0.2-1.4c0.1-0.4-0.2-1-0.5-1.3l-0.3-0.3c-0.4-0.3-0.6-0.6-0.6-0.8c0-0.1-0.2-0.4-0.4-0.7
		c-0.2-0.3-0.6-0.4-0.9-0.3c-0.3,0.1-0.8-0.1-1.1-0.5l0-0.1c-0.3-0.4-0.9-0.8-1.3-1l0,0c-0.4-0.2-0.9,0-1.1,0.4l0,0
		c-0.2,0.4-0.2,1.1-0.1,1.6l0.1,0.3c0.1,0.4,0.1,0.9-0.1,1c-0.2,0.1-0.4,0.5-0.3,0.9c0,0.4-0.1,0.7-0.4,0.7c-0.2,0-0.6-0.3-0.8-0.7
		l0-0.1c-0.2-0.4-0.7-1-1.1-1.2l-1.8-1.3c-0.4-0.3-0.5-0.8-0.2-1.2l0.7-0.9c0.3-0.4,0.8-0.5,1.2-0.2l0,0c0.4,0.3,0.8,0.3,1,0.1
		c0.2-0.2,0.2-0.6,0.1-0.9c-0.1-0.3,0-0.7,0.2-1c0.3-0.3,0.3-0.7,0.2-0.9c-0.2-0.2-0.1-0.6,0.1-0.8c0.2-0.2,0.8-0.3,1.2-0.1l0.8,0.3
		c0.4,0.2,0.7,0.7,0.7,1.1c0,0.4-0.1,1-0.1,1.3s0.3,0.7,0.7,0.9l0.3,0.1c0.4,0.2,1,0.1,1.2-0.3l0.9-1.2c0.3-0.4,0.1-0.8-0.3-1
		l-0.5-0.2c-0.4-0.2-0.9-0.7-1.1-1.1l0,0c-0.2-0.4-0.7-1-1-1.3c0,0-2.3-1.6-2.3-1.7c0-0.1,0.5-1.2,0.5-1.2c0.2-0.4,0.7-1,1-1.2
		l2.5-1.6c0.4-0.2,0.6-0.6,0.4-0.7c-0.2-0.2-0.7-0.3-1.2-0.2l-6.3,0.4c-0.5,0-1,0.2-1.2,0.3c-0.2,0.2-0.3,0.6-0.1,1.1l0.5,1.7
		c0.1,0.4,0.5,1.1,0.9,1.4c0,0,0.2,0.2,0.3,0.2c0.1,0,0.1,0.3,0.1,0.3c-0.1,0.5-0.5,0.7-0.8,0.6c-0.3-0.1-0.8-0.5-0.9-0.9l-0.1-0.3
		C-67.1,1-67.5,0.4-67.8,0l0,0c-0.3-0.4-0.8-0.7-1.2-0.7c-0.4,0-0.8,0.3-0.8,0.6c0,0.3,0.3,0.7,0.8,0.8l0,0c0.4,0.1,0.8,0.5,0.9,0.8
		c0,0.3-0.1,0.6-0.4,0.6c-0.2,0.1-0.3,0.4-0.2,0.7c0.1,0.3,0.6,0.7,1,0.9l0.7,0.3c0.4,0.2,0.5,0.6,0.3,1L-67,5.4
		C-67.3,5.8-67.9,6-68.3,6l-0.3,0c-0.5,0-1-0.2-1.3-0.3c-0.2-0.1-0.2-0.4,0.2-0.7c0.3-0.3,0.4-0.8,0.1-1.2L-70.2,3
		c-0.3-0.4-0.9-0.6-1.3-0.4l0,0c-0.4,0.1-0.9,0-1-0.3c-0.1-0.3,0.2-0.6,0.7-0.7l0.6-0.1c0.5-0.1,0.6-0.5,0.3-0.8
		c-0.3-0.4-0.8-0.7-1.1-0.8c-0.4-0.1-1,0-1.4,0.2l-1.5,0.7c-0.4,0.2-0.8,0.7-0.8,1.2l-0.1,0.6c0,0.5,0.2,0.9,0.6,1
		c0.4,0.1,1,0.4,1.3,0.7l0.3,0.2c0.4,0.3,0.6,0.8,0.4,1c-0.1,0.3-0.5,0.3-0.9,0.1l-0.1-0.1c-0.4-0.2-1.1-0.5-1.5-0.7l-0.4-0.1
		c-0.4-0.1-1.1,0-1.5,0.3L-77.9,5c-0.4,0.3-1,0.4-1.4,0.2l-0.3-0.1c-0.4-0.2-1.2-0.4-1.6-0.5l-2.9-0.4c-0.5-0.1-1.2,0-1.7,0.1
		L-87,4.5c-0.4,0.1-1,0.6-1.1,1l-0.2,0.5c-0.2,0.4,0,1,0.4,1.2l0.1,0c0.4,0.2,0.5,0.7,0.2,1c-0.3,0.3-0.3,0.7-0.1,0.9
		c0.2,0.1,0.5,0.5,0.7,0.8c0.1,0.3,0.6,0.6,1.1,0.6c0.4,0,1.1-0.2,1.5-0.4l0.7-0.4c0.4-0.2,1.1-0.3,1.6-0.2l1,0.3
		c0.5,0.1,1.1,0.5,1.4,0.8l1.1,1.1c0.3,0.3,0.9,0.9,1.1,1.2l1,1.2c0.3,0.4,0.6,1,0.6,1.5l0.1,2.7c0,0.5,0.2,1.2,0.5,1.6l1.1,1.7
		c0.2,0.4,0.7,0.7,1,0.6c0.3,0,0.8,0.2,1.1,0.6l1.7,2.4c0.3,0.4,0.5,0.9,0.4,1.2c0,0.3,0.2,0.7,0.6,1l0.9,0.8
		c0.4,0.3,0.9,0.4,1.3,0.3c0.4-0.1,0.8,0,1.1,0.3c0.2,0.3,0.7,0.6,1,0.7c0.3,0.1,0.6,0.4,0.7,0.6c0,0.3,0.4,0.7,0.8,0.9l0.3,0.2
		C-63.1,31.6-62.7,31.7-62.5,31.5z M-44.9,3.8l0-0.2c0.1-0.5,0.3-1.1,0.6-1.5c0.3-0.3,0.4-1,0.3-1.4c0,0-0.2-1-0.2-1.1
		c0-0.1,1.8-1.4,1.7-1.6c-0.1-0.1-0.1-0.1-0.1-0.1c-0.1-0.4-0.5-0.6-0.9-0.5l-0.7,0.2c-0.4,0.1-0.9,0.1-0.9-0.1
		c-0.1-0.2,0-0.4,0.1-0.5c0.1-0.1-0.1-0.3-0.6-0.5l-0.9-0.3C-47-3.9-47.7-4-48.2-4l-2.4,0.2c-0.5,0-1.1,0.3-1.5,0.6l-0.1,0
		c-0.4,0.3-1.1,0.4-1.5,0.3l-0.1,0c-0.5-0.1-1.2,0-1.6,0.1l-2.1,0.8c-0.4,0.2-0.8,0.5-0.7,0.8c0,0.3-0.2,0.6-0.5,0.8
		c-0.3,0.2-0.6,0.6-0.5,0.8c0,0.3,0.5,0.5,0.9,0.5h0.9c0.5,0,1.1,0.3,1.5,0.6l0.6,0.6c0.3,0.3,0.5,0.7,0.4,1c-0.1,0.2,0,0.6,0.3,0.8
		c0.3,0.3,0.4,0.8,0.3,1.3l-0.1,0.3c-0.1,0.5,0,1.1,0.3,1.5l1.3,2c0.3,0.4,0.8,0.6,1.2,0.6c0.4-0.1,0.8-0.5,0.9-1l0.2-1
		c0.1-0.5,0.3-0.8,0.6-0.7c0.2,0.1,0.7,0,1-0.2c0.3-0.2,0.6-0.6,0.8-0.9c0.1-0.3,0.5-0.5,0.8-0.4c0.3,0,1-0.1,1.4-0.3l0.3-0.1
		C-45.4,4.8-45,4.3-44.9,3.8z M-42.4,7c0-0.3-0.5-0.5-0.9-0.4l-1.5,0.2c-0.5,0.1-0.9,0.2-1,0.4c-0.1,0.1,0.2,0.5,0.5,0.7
		s1,0.3,1.5,0.2l0.7-0.2C-42.7,7.7-42.4,7.3-42.4,7z M17.8,6.7c0,0-2.1-1.4-2.3-1.6c-0.2-0.1-1.7-0.4-1.7-0.4c-0.5-0.1-1,0-1.2,0.2
		c-0.2,0.2-0.8,0.4-1.3,0.3l-0.4,0c-0.5,0-1.1-0.3-1.4-0.5C9.2,4.5,8.6,4.3,8.1,4.3l-0.3,0c-0.5,0-1-0.2-1.3-0.4
		C6.4,3.7,5.8,3.5,5.3,3.5L4.5,3.4c-0.5-0.1-0.9,0-1,0.2C3.3,3.7,2.9,4,2.4,4.1L2,4.2C1.5,4.4,0.9,4.3,0.5,4L0.2,3.9
		c-0.4-0.3-1.1-0.4-1.5-0.4c-0.4,0.1-1-0.1-1.3-0.3C-2.9,3-3.4,2.7-3.8,2.7c-0.3,0-0.6-0.4-0.6-0.7c0-0.4-0.2-0.9-0.5-1.1
		c-0.3-0.2-0.7-0.3-0.9-0.2c-0.2,0.1-0.7,0-1.1-0.2c-0.4-0.2-0.9-0.1-1.3,0.2l-0.1,0.1c-0.4,0.3-1,0.6-1.5,0.6l-1.1,0
		c-0.5,0-1,0.3-1.2,0.6c-0.2,0.3-0.8,0.7-1.2,0.8l-0.1,0c-0.5,0.1-1.1,0.4-1.5,0.6l-0.4,0.3c-0.4,0.3-0.8,0.2-1-0.2
		c-0.2-0.4-0.6-0.6-0.9-0.6c-0.3,0-0.7,0.3-0.9,0.8l-0.3,0.6c-0.2,0.4-0.7,0.6-1.1,0.3l-1.3-0.8c-0.4-0.2-0.6-0.6-0.5-0.8
		c0.1-0.2,0.6-0.4,1-0.6l1.6-0.5c0.4-0.1,0.7-0.5,0.7-0.8c-0.1-0.3-0.5-0.5-1-0.4L-20.5,1c-0.5,0.1-1.1,0.4-1.3,0.8l-0.8,1.1
		c-0.3,0.4-0.2,0.8,0.3,1l1.4,0.6c0.4,0.2,0.8,0.5,0.9,0.7c0,0.2-0.3,0.3-0.8,0.3l-0.9,0c-0.5,0-1.2,0.2-1.6,0.4l-0.1,0.1
		c-0.4,0.2-1,0.2-1.2,0C-25,5.9-25.3,6-25.4,6.3c-0.1,0.3-0.5,0.8-0.8,1.1l-0.2,0.2c-0.4,0.3-0.9,0.2-1.1-0.1L-28,7
		c-0.3-0.4-0.1-0.6,0.3-0.4l0,0c0.4,0.2,0.9,0,1-0.3c0.1-0.3-0.2-0.7-0.6-0.9l-2-1c-0.4-0.2-1.1-0.4-1.6-0.4h-0.8
		c-0.5,0-1.1,0.3-1.3,0.7l-0.7,1c-0.3,0.4-0.8,1-1.1,1.3l-1.5,1.3c-0.3,0.3-0.6,0.9-0.6,1.4l0,0.3c0,0.5,0.3,0.8,0.5,0.9
		c0.2,0,0.5,0.4,0.5,0.9l0,0c0,0.5,0.4,0.7,0.9,0.6l0.3-0.1c0.4-0.2,1-0.6,1.2-1l0.3-0.5c0.2-0.4,0.2-1,0-1.2
		c-0.2-0.3-0.2-0.8,0.1-1.2l0.5-0.8c0.2-0.4,0.7-0.6,1-0.5c0.3,0.1,0.4,0.5,0.1,0.9L-31.5,8c-0.3,0.4-0.4,0.9-0.2,1.1
		c0.2,0.2,0.6,0.3,1.1,0.2l0.8-0.3c0.4-0.2,0.9-0.1,1,0.2c0.1,0.3-0.1,0.6-0.6,0.7l-1.7,0.5c-0.4,0.1-0.9,0.6-1.1,1l-0.2,0.5
		c-0.2,0.4-0.7,0.8-1.1,0.9l-2.1,0.3c-0.5,0.1-1.1,0.3-1.5,0.6l-2,1.4c-0.4,0.3-0.4,0.8-0.1,1.1l0.1,0.1c0.3,0.3,0.5,0.8,0.4,0.9
		c-0.1,0.2-0.5,0.3-1,0.2l-0.7,0c-0.5,0-0.9,0.3-0.9,0.8l-0.1,0.9c0,0.5,0.2,1,0.5,1.1c0.3,0.2,0.9,0.2,1.3,0c0.4-0.2,1-0.6,1.3-0.9
		l0.4-0.4c0.3-0.4,0.9-0.8,1.3-0.9l0.1,0c0.4-0.1,1.1,0,1.4,0.3c0.3,0.3,0.5,0.8,0.4,1.1c-0.1,0.3,0,0.6,0.1,0.8
		c0.2,0.2,0.6,0,0.9-0.3c0.3-0.3,0.3-0.9,0-1.2l-0.6-0.7c-0.3-0.3-0.5-0.7-0.5-0.8c0-0.1,0.4,0,0.8,0.3l0.4,0.3
		c0.4,0.3,0.8,0.8,1,1.2l0.4,0.9c0.2,0.4,0.5,0.7,0.7,0.6c0.2-0.1,0.2-0.5,0.1-0.8c-0.1-0.4,0-0.7,0.2-0.7c0.2,0,0.6,0.3,0.8,0.7
		l0,0.1c0.2,0.4,0.7,0.8,1.2,0.8c0,0,1.5,0,1.6,0.1c0.1,0.1,0.1,0.2,0.1,0.2c-0.1,0.5-0.3,1.1-0.5,1.4c-0.2,0.3-0.6,0.6-0.9,0.7
		c-0.3,0.1-0.9,0-1.3-0.1l-1.3-0.4c-0.4-0.1-0.8,0-0.8,0.2c0,0.3-0.2,0.5-0.5,0.5c-0.3,0-0.9-0.2-1.3-0.4l-0.1-0.1
		c-0.4-0.2-0.8-0.8-0.9-1.2l0,0c-0.1-0.5-0.5-0.8-0.9-0.8H-37c-0.5,0-1.1,0.2-1.5,0.4c-0.3,0.2-0.8,0.4-1.1,0.3
		c-0.3-0.1-0.8,0.1-1.2,0.4c-0.4,0.3-0.7,0.8-0.8,1.2c-0.1,0.4-0.3,1-0.6,1.4l-0.9,1.2c-0.3,0.4-0.5,1.1-0.5,1.5l-0.1,1.5
		c0,0.5,0.1,1.2,0.4,1.6L-42,32c0.2,0.4,0.8,0.7,1.3,0.6l0.6-0.1c0.5,0,1.2-0.3,1.6-0.5l0.3-0.1c0.4-0.2,0.9-0.1,1.1,0.2
		c0.2,0.3,0.6,0.7,1,0.8c0.3,0.1,0.5,0.6,0.4,1l0,0.1c-0.1,0.5,0.1,1.1,0.4,1.5l0.3,0.3c0.3,0.3,0.6,1,0.7,1.5l0.1,0.9
		c0.1,0.5,0,1.2-0.2,1.6l-0.2,0.5c-0.2,0.4-0.1,1.1,0,1.4c0.2,0.3,0.3,1,0.4,1.4l0.1,1c0.1,0.5,0.3,1,0.4,1.3
		c0.2,0.2,0.4,0.8,0.5,1.3l0,0.1c0.1,0.4,0.6,0.8,1.1,0.7l0.6-0.1c0.5,0,1.1-0.4,1.4-0.7l0.7-0.8c0.3-0.4,0.5-0.9,0.5-1.2
		s0.2-0.6,0.4-0.8s0.5-0.4,0.5-0.5c0-0.1,0-0.6-0.1-0.9c-0.1-0.4,0.2-0.9,0.5-1.2l0.2-0.2c0.4-0.3,0.7-0.9,0.8-1.3l0-0.1
		c0.1-0.5,0.1-1.2,0-1.7l-0.2-1.2c-0.1-0.5,0.1-1.1,0.4-1.5l1.7-2.1c0.3-0.4,0.7-1,0.9-1.4l0.1-0.2c0.2-0.4,0.2-0.9,0.2-1.1
		c-0.1-0.2-0.6-0.3-1-0.2l-0.3,0c-0.5,0-1-0.3-1.2-0.7l-2.3-5.1c-0.2-0.4-0.2-0.8,0-0.9c0.2-0.1,0.4,0.2,0.6,0.6l2,4.6
		c0.2,0.4,0.7,0.6,1.1,0.3l2.4-1.4c0.4-0.2,0.9-0.7,1.1-1.1c0.2-0.4,0.1-0.9-0.2-1.1c-0.3-0.3-0.9-0.4-1.1-0.4
		c-0.3,0.1-0.7-0.2-1-0.6l-0.5-0.8c-0.3-0.4-0.3-0.8-0.1-0.9c0.2-0.1,0.7,0,1,0.3l1.5,1.1c0.4,0.3,1.1,0.5,1.5,0.5l0.5,0
		c0.5,0,1.1,0.2,1.5,0.5l0.4,0.3c0.4,0.3,0.7,0.9,0.8,1.4l0,0.1c0.1,0.5,0.2,1.2,0.4,1.6l0.8,1.9c0.2,0.4,0.5,0.6,0.6,0.3
		c0.2-0.3,0.4-0.8,0.4-1.3l0.1-0.4c0.1-0.5,0.4-1.1,0.8-1.3l1.7-1.2c0.4-0.3,0.9-0.2,1.2,0.2l0.7,1c0.3,0.4,0.6,1.1,0.6,1.5l0.3,1.7
		c0.1,0.5,0.3,1,0.6,1.1c0.2,0.2,0.4-0.1,0.3-0.5l-0.1-0.6c-0.1-0.5,0.2-0.7,0.5-0.4c0.3,0.2,0.9,0.2,1.2-0.2l0.1-0.1
		c0.3-0.3,0.5-0.9,0.2-1.3l-0.1-0.1c-0.2-0.4-0.5-1.1-0.5-1.4c-0.1-0.4,0.2-0.8,0.6-1l2-0.8c0.4-0.2,1-0.6,1.2-1l0.2-0.3
		c0.2-0.4,0.5-1,0.5-1.3c0-0.3-0.1-0.9-0.3-1.2c-0.2-0.4-0.3-0.9-0.1-1.1c0.1-0.2,0.1-0.5-0.1-0.6c-0.2-0.1-0.2-0.5,0-0.8
		c0.2-0.3,0.5-0.5,0.7-0.5c0.3,0,0.6,0.3,0.9,0.5c0.2,0.3,0.3,0.7,0.2,1C-1,21-0.9,21.3-0.8,21.5c0.1,0.1,0.4-0.1,0.6-0.5
		C0,20.6,0,20.1-0.1,19.7c-0.1-0.3,0.1-0.8,0.4-1.2c0,0,1.2-1,1.3-1c0.1,0,0.9-1,0.9-1c0.3-0.4,0.6-1,0.8-1.4c0.1-0.4,0.2-1,0.2-1.2
		c0-0.3-0.3-0.7-0.7-0.9c-0.4-0.2-0.5-0.7-0.2-1l1.1-1.3c0.3-0.3,0.9-0.6,1.4-0.6l1.6,0.1c0.5,0,1.2-0.1,1.5-0.4l0.4-0.3
		c0.4-0.3,1-0.3,1.5-0.1c0,0,0.1,0,0.2,0.1s-2.1,2.1-2.1,2.2c0,0.1-0.1,1.7-0.1,1.7c0,0.5,0.1,0.8,0.3,0.8c0.2,0,0.5-0.4,0.8-0.8
		l0.9-1.5c0.2-0.4,0.5-1,0.6-1.4c0.1-0.4,0.5-0.6,1-0.6l0.3,0c0.5,0.1,0.9-0.1,1-0.3c0.1-0.2,0.6-0.5,1-0.6l0.1,0
		c0.4-0.1,0.8-0.4,0.8-0.6c0-0.2,0.2-0.5,0.6-0.7c0.3-0.2,0.9-0.2,1.4,0l0.3,0.1C17.6,8.1,18,8,18.2,7.7C18.3,7.4,18.2,7,17.8,6.7z
		 M-24.1,39.3c0,0.2-0.2,0.6-0.4,0.9c-0.2,0.2-0.5,0.5-0.8,0.6c-0.2,0.1-0.4,0.3-0.3,0.5c0.1,0.2,0.2,0.5,0.2,0.6
		c0,0.1,0,0.3-0.2,0.5c-0.1,0.1-0.2,0.6-0.1,0.9c0.1,0.4,0.4,0.7,0.6,0.8c0.2,0.1,0.4,0,0.5,0c0.1-0.1,0.2-0.5,0.3-1l0.6-2.4
		c0.1-0.5,0.1-1.1-0.1-1.4C-23.8,39.1-24,39.1-24.1,39.3z M7,44.9c-0.1-0.5-0.4-1.1-0.6-1.5l-0.5-0.8c-0.3-0.4-0.6-1.1-0.8-1.5
		l-0.4-1c-0.2-0.4-0.5-0.9-0.6-1c-0.2-0.1-0.4,0.2-0.4,0.7l-0.1,0.7c0,0.5-0.4,0.6-0.8,0.4l0,0c-0.4-0.2-0.7-0.6-0.7-0.7
		c0-0.2,0.1-0.3,0.2-0.4c0.1-0.1,0.2-0.2,0.2-0.3c0-0.1-0.4-0.2-0.8-0.1l0,0c-0.5,0.1-1,0.3-1.2,0.5c-0.2,0.2-0.5,0.3-0.8,0.3
		c-0.2-0.1-0.7,0.1-0.9,0.5l-0.4,0.5c-0.3,0.4-0.8,0.9-1.2,1.1l-0.8,0.4c-0.4,0.2-0.8,0.5-1,0.7c-0.1,0.2-0.1,0.6,0.1,1.1
		c0,0,0.5,1.2,0.5,1.3c0,0.1,0.3,1.3,0.3,1.3c0.1,0.5,0.5,0.7,1,0.6l2.9-0.8c0.4-0.1,1,0,1.2,0.2c0.2,0.3,0.6,0.4,0.8,0.4
		c0.2-0.1,0.5,0.2,0.7,0.7l0.2,0.5c0.2,0.4,0.6,0.7,0.9,0.7c0.3,0,0.9-0.1,1.4-0.2c0.4-0.1,0.9-0.5,1.1-0.8c0.1-0.4,0.4-1,0.6-1.3
		c0.2-0.4,0.2-1,0.2-1.5L7,44.9z M5.2,50.4c-0.3,0-0.4,0.3-0.3,0.6c0.2,0.4,0.4,0.4,0.6,0C5.7,50.7,5.5,50.4,5.2,50.4z M0.8,36L1,36
		c0.5,0.1,1.1,0.5,1.4,0.8L3,37.5c0.3,0.3,0.9,0.7,1.4,0.8l0.9,0.1c0.5,0.1,0.8-0.2,0.8-0.7v-0.2c0-0.5-0.3-1-0.7-1.2l-0.7-0.4
		c-0.4-0.2-1.1-0.5-1.6-0.5l-1.2-0.2c-0.5-0.1-1.1,0-1.4,0.2C0.2,35.6,0.3,35.9,0.8,36z M-0.8,32l0.3-0.8c0.2-0.4,0.1-1.1-0.2-1.5
		l-0.8-1.3c-0.3-0.4-0.6-0.4-0.8,0.1l-0.2,0.6c-0.2,0.4-0.1,1.1,0.1,1.5l0.9,1.4C-1.3,32.5-1,32.4-0.8,32z M-4,33l-1.3,0.8
		c-0.4,0.2-0.4,0.7-0.1,1l0.5,0.5c0.3,0.3,1,0.7,1.4,0.7l1.4,0.2c0.5,0.1,0.6-0.1,0.2-0.4l-0.8-0.7c-0.3-0.3-0.6-0.9-0.6-1.4v-0.4
		C-3.2,32.9-3.6,32.7-4,33z M-1.4,38.3c0.1-0.3-0.2-0.6-0.7-0.8l-3.1-0.9c-0.4-0.1-1.1-0.5-1.4-0.9l-1.6-1.9
		c-0.3-0.4-0.9-0.6-1.3-0.6c-0.4,0-0.5,0.3-0.2,0.7l2.1,3c0.3,0.4,0.9,0.8,1.3,0.9l3.9,0.9C-1.9,38.8-1.5,38.6-1.4,38.3z M1.4,22.6
		L3,22c0.4-0.2,0.8-0.7,0.9-1.1l0.8-6.6c0.1-0.5-0.1-0.9-0.2-1.1c-0.2-0.1-0.4,0.1-0.5,0.6l-1,5.4c-0.1,0.5-0.4,1.1-0.8,1.4
		l-0.9,0.7c-0.4,0.3-0.7,0.8-0.7,1.1C0.6,22.6,1,22.7,1.4,22.6z M-41.4,14c0.2,0.1,0.6-0.2,0.8-0.6c0.2-0.4,0.4-0.7,0.5-0.6
		c0.1,0.1,0.1,0.5,0,1l0,0.1c-0.1,0.5,0.2,0.8,0.7,0.7l0,0c0.5-0.1,1-0.4,1.2-0.6c0.2-0.3,0.1-0.8-0.2-1.1l-0.1-0.1
		c-0.3-0.3-0.6-1-0.7-1.4c-0.1-0.4-0.4-0.7-0.8-0.7c-0.4,0-0.6,0.4-0.5,0.8c0,0,0.1,0.4,0.1,0.4c0,0.1-0.8,1.3-0.8,1.3
		C-41.6,13.6-41.6,13.9-41.4,14z"/>
</g>
<g id="Layer_1">
	<g>
		<path class="st2" d="M20,0C9,0,0,9,0,20c0,11,9,20,20,20s20-9,20-20C40,9,31,0,20,0z M18.2,37.9c0-0.5-0.5-0.9-1-0.9
			c-0.4,0-0.8,0.3-0.9,0.6C8.2,35.9,2,28.7,2,20c0-9.9,8.1-18,18-18c3.8,0,7.4,1.2,10.3,3.3C30.4,5.7,30.8,6,31.2,6c0,0,0,0,0,0
			c0.5,0.4,0.9,0.8,1.4,1.2c-0.2,0.2-0.4,0.5-0.4,0.8c0,0.6,0.4,1,1,1c0.3,0,0.5-0.1,0.7-0.3c0.4,0.4,0.7,0.9,1,1.4
			c-0.4,0.1-0.7,0.5-0.7,0.9c0,0.6,0.4,1,1,1c0.3,0,0.5-0.1,0.7-0.3c0.3,0.5,0.5,1,0.7,1.5c-0.2,0.2-0.4,0.5-0.4,0.8
			c0,0.6,0.4,1,1,1c0,0,0,0,0,0c0.4,1.4,0.6,2.8,0.7,4.3c-0.2-0.2-0.4-0.3-0.7-0.3c-0.6,0-1,0.4-1,1c0,0.6,0.4,1,1,1
			c0.3,0,0.5-0.1,0.7-0.3c-0.1,1.5-0.3,2.9-0.7,4.3c0,0,0,0,0,0c-0.6,0-1,0.4-1,1c0,0.3,0.2,0.6,0.4,0.8c-0.2,0.5-0.4,1-0.7,1.5
			c-0.2-0.2-0.4-0.3-0.7-0.3c-0.6,0-1,0.4-1,1c0,0.5,0.3,0.8,0.7,0.9c-0.3,0.5-0.7,0.9-1,1.4c-0.2-0.2-0.4-0.3-0.7-0.3
			c-0.6,0-1,0.4-1,1c0,0.3,0.2,0.6,0.4,0.8c-0.4,0.4-0.9,0.8-1.4,1.2c0,0,0,0,0,0c-0.5,0-0.8,0.3-0.9,0.7c-1.4,1-3,1.8-4.7,2.3
			C25.5,37,25.4,37,25.2,37c-0.3,0-0.6,0.2-0.8,0.4c-0.7,0.2-1.5,0.3-2.2,0.4c-0.1-0.5-0.5-0.8-1-0.8c-0.5,0-1,0.4-1,1
			c-0.1,0-0.2,0-0.3,0C19.4,38,18.8,38,18.2,37.9z"/>
		<circle class="st2" cx="27.2" cy="5" r="1"/>
		<circle class="st2" cx="19.2" cy="5" r="1"/>
		<circle class="st2" cx="25.2" cy="8" r="1"/>
		<circle class="st2" cx="21.2" cy="8" r="1"/>
		<circle class="st2" cx="17.2" cy="8" r="1"/>
		<circle class="st2" cx="29.2" cy="8" r="1"/>
		<circle class="st2" cx="31.2" cy="11" r="1"/>
		<circle class="st2" cx="27.2" cy="11" r="1"/>
		<circle class="st2" cx="23.2" cy="11" r="1"/>
		<circle class="st2" cx="21.2" cy="14" r="1"/>
		<circle class="st2" cx="17.2" cy="14" r="1"/>
		<circle class="st2" cx="25.2" cy="14" r="1"/>
		<circle class="st2" cx="29.2" cy="14" r="1"/>
		<circle class="st2" cx="33.2" cy="14" r="1"/>
		<circle class="st2" cx="21.2" cy="20" r="1"/>
		<circle class="st2" cx="17.2" cy="20" r="1"/>
		<circle class="st2" cx="25.2" cy="20" r="1"/>
		<circle class="st2" cx="25.2" cy="26" r="1"/>
		<circle class="st2" cx="29.2" cy="26" r="1"/>
		<circle class="st2" cx="29.2" cy="20" r="1"/>
		<circle class="st2" cx="33.2" cy="20" r="1"/>
		<circle class="st2" cx="33.2" cy="26" r="1"/>
		<circle class="st2" cx="19.2" cy="11" r="1"/>
		<circle class="st2" cx="15.2" cy="11" r="1"/>
		<circle class="st2" cx="11.2" cy="11" r="1"/>
		<circle class="st2" cx="7.2" cy="11" r="1"/>
		<circle class="st2" cx="9.2" cy="14" r="1"/>
		<circle class="st2" cx="19.2" cy="17" r="1"/>
		<circle class="st2" cx="15.2" cy="17" r="1"/>
		<circle class="st2" cx="23.2" cy="17" r="1"/>
		<circle class="st2" cx="27.2" cy="17" r="1"/>
		<circle class="st2" cx="31.2" cy="17" r="1"/>
		<circle class="st2" cx="35.2" cy="17" r="1"/>
		<circle class="st2" cx="35.2" cy="23" r="1"/>
		<circle class="st2" cx="31.2" cy="23" r="1"/>
		<circle class="st2" cx="27.2" cy="23" r="1"/>
		<circle class="st2" cx="23.2" cy="23" r="1"/>
		<circle class="st2" cx="31.2" cy="29" r="1"/>
		<circle class="st2" cx="27.2" cy="29" r="1"/>
		<circle class="st2" cx="23.2" cy="29" r="1"/>
		<circle class="st2" cx="19.2" cy="29" r="1"/>
		<circle class="st2" cx="15.2" cy="29" r="1"/>
		<circle class="st2" cx="11.2" cy="29" r="1"/>
		<circle class="st2" cx="21.2" cy="26" r="1"/>
		<circle class="st2" cx="17.2" cy="26" r="1"/>
		<circle class="st2" cx="17.2" cy="32" r="1"/>
		<circle class="st2" cx="13.2" cy="26" r="1"/>
		<circle class="st2" cx="13.2" cy="32" r="1"/>
		<circle class="st2" cx="25.2" cy="32" r="1"/>
		<circle class="st2" cx="21.2" cy="32" r="1"/>
		<circle class="st2" cx="29.2" cy="32" r="1"/>
		<circle class="st2" cx="15.2" cy="35" r="1"/>
		<circle class="st2" cx="23.2" cy="35" r="1"/>
		<circle class="st2" cx="19.2" cy="35" r="1"/>
		<circle class="st2" cx="27.2" cy="35" r="1"/>
	</g>
</g>
</svg>
