<?xml version="1.0" encoding="utf-8"?>
<!-- Generator: Adobe Illustrator 22.1.0, SVG Export Plug-In . SVG Version: 6.00 Build 0)  -->
<svg version="1.1" id="Layer_1" xmlns="http://www.w3.org/2000/svg" xmlns:xlink="http://www.w3.org/1999/xlink" x="0px" y="0px"
	 viewBox="0 0 40 40" style="enable-background:new 0 0 40 40;" xml:space="preserve">
<style type="text/css">
	.st0{fill:#FFFFFF;}
</style>
<g>
	<path class="st0" d="M36.5,17c-1.9,0-3.5,1.6-3.5,3.5c0,0.2,0,0.3,0,0.5l-4.9,2.2c-0.6-0.7-1.6-1.2-2.6-1.2c-1.9,0-3.5,1.6-3.5,3.5
		c0,0.6,0.2,1.2,0.4,1.7l-6.3,6.3c-0.5-0.3-1.1-0.4-1.7-0.4c-1,0-1.9,0.4-2.5,1.1l-5-2.5C7,31.4,7,31.2,7,31c0-1.9-1.6-3.5-3.5-3.5
		S0,29.1,0,31s1.6,3.5,3.5,3.5c1,0,1.9-0.4,2.5-1.1l5,2.5c0,0.2-0.1,0.4-0.1,0.6c0,1.9,1.6,3.5,3.5,3.5s3.5-1.6,3.5-3.5
		c0-0.6-0.2-1.2-0.4-1.7l6.3-6.3c0.5,0.3,1.1,0.4,1.7,0.4c1.9,0,3.5-1.6,3.5-3.5c0-0.2,0-0.3,0-0.5l4.9-2.2c0.6,0.7,1.6,1.2,2.6,1.2
		c1.9,0,3.5-1.6,3.5-3.5S38.4,17,36.5,17z M3.5,32.5C2.7,32.5,2,31.8,2,31s0.7-1.5,1.5-1.5S5,30.2,5,31S4.3,32.5,3.5,32.5z M14.5,38
		c-0.8,0-1.5-0.7-1.5-1.5s0.7-1.5,1.5-1.5s1.5,0.7,1.5,1.5S15.3,38,14.5,38z M25.5,27c-0.8,0-1.5-0.7-1.5-1.5s0.7-1.5,1.5-1.5
		s1.5,0.7,1.5,1.5S26.3,27,25.5,27z M36.5,22c-0.8,0-1.5-0.7-1.5-1.5s0.7-1.5,1.5-1.5s1.5,0.7,1.5,1.5S37.3,22,36.5,22z"/>
	<path class="st0" d="M3.5,11c1.4,0,2.5-0.8,3.1-1.9L11,9.9c0.2,1.7,1.7,3.1,3.5,3.1c1.1,0,2.2-0.6,2.8-1.4l4.7,1.7
		c0,0.1,0,0.1,0,0.2c0,1.9,1.6,3.5,3.5,3.5s3.5-1.6,3.5-3.5c0-0.5-0.1-1-0.4-1.5l6.1-5.5C35.2,6.8,35.8,7,36.5,7
		C38.4,7,40,5.4,40,3.5S38.4,0,36.5,0S33,1.6,33,3.5c0,0.5,0.1,1,0.4,1.5l-6.1,5.5c-0.5-0.3-1.1-0.5-1.8-0.5c-1.1,0-2.2,0.6-2.8,1.4
		L18,9.7c0-0.1,0-0.1,0-0.2C18,7.6,16.4,6,14.5,6c-1.4,0-2.5,0.8-3.1,1.9L7,7.1C6.8,5.4,5.3,4,3.5,4C1.6,4,0,5.6,0,7.5
		S1.6,11,3.5,11z M36.5,2C37.3,2,38,2.7,38,3.5S37.3,5,36.5,5S35,4.3,35,3.5S35.7,2,36.5,2z M25.5,12c0.8,0,1.5,0.7,1.5,1.5
		S26.3,15,25.5,15S24,14.3,24,13.5S24.7,12,25.5,12z M14.5,8C15.3,8,16,8.7,16,9.5S15.3,11,14.5,11S13,10.3,13,9.5S13.7,8,14.5,8z
		 M3.5,6C4.3,6,5,6.7,5,7.5S4.3,9,3.5,9S2,8.3,2,7.5S2.7,6,3.5,6z"/>
</g>
</svg>
