<?xml version="1.0" encoding="UTF-8"?>
<svg width="160px" height="70px" viewBox="0 0 160 70" version="1.1" xmlns="http://www.w3.org/2000/svg" xmlns:xlink="http://www.w3.org/1999/xlink">
    <!-- Generator: Sketch 51.3 (57544) - http://www.bohemiancoding.com/sketch -->
    <title>cotton-on-logobar-svg</title>
    <desc>Created with Sketch.</desc>
    <defs>
        <polygon id="path-1" points="0 0.00665502646 100 0.00665502646 100 18.8994709 0 18.8994709"></polygon>
    </defs>
    <g id="cotton-on-logobar-svg" stroke="none" stroke-width="1" fill="none" fill-rule="evenodd">
        <g id="Group-6" transform="translate(31.000000, 26.000000)">
            <path d="M73.4527528,15.8042101 C74.4794795,15.8042101 75.3117117,14.9685116 75.3117117,13.9373847 C75.3117117,12.9065593 74.4794795,12.0703582 73.4527528,12.0703582 C72.4263263,12.0703582 71.5940941,12.9065593 71.5940941,13.9373847 C71.5940941,14.9685116 72.4263263,15.8042101 73.4527528,15.8042101 M73.4527528,6.98489259 C72.4263263,6.98489259 71.5940941,6.14909365 71.5940941,5.1180672 C71.5940941,4.08714127 72.4263263,3.25134233 73.4527528,3.25134233 C74.4794795,3.25134233 75.3117117,4.08714127 75.3117117,5.1180672 C75.3116116,6.14909365 74.4794795,6.98489259 73.4527528,6.98489259" id="Fill-1" fill="#00112C"></path>
            <g id="Group-5" transform="translate(0.000000, 0.093894)">
                <mask id="mask-2" fill="white">
                    <use xlink:href="#path-1"></use>
                </mask>
                <g id="Clip-4"></g>
                <path d="M100,18.491946 L100,0.413797884 L96.9727728,0.413797884 L96.9727728,11.1358296 L95.7834835,8.25858624 L92.4590591,0.413797884 L89.566967,0.413797884 L89.566967,18.4921471 L92.6483483,18.4921471 L92.6483483,7.90562857 L93.9185185,10.783073 L97.4053053,18.491946 L100,18.491946 Z M84.1690691,14.1760307 L84.1690691,4.72971323 C84.1690691,3.67104127 83.5474474,2.96522646 82.4392392,2.96522646 C81.3582583,2.96522646 80.7364364,3.67104127 80.7364364,4.72971323 L80.7364364,14.1760307 C80.7364364,15.2348032 81.3581582,15.9403164 82.4392392,15.9403164 C83.5475475,15.9403164 84.1690691,15.2348032 84.1690691,14.1760307 Z M87.5479479,13.9587873 C87.5479479,16.8361312 85.6016016,18.899491 82.4392392,18.899491 C79.3038038,18.899491 77.3309309,16.8361312 77.3309309,13.9587873 L77.3309309,4.94695661 C77.3309309,2.09675556 79.3038038,0.0337978836 82.4392392,0.0337978836 C85.6016016,0.0337978836 87.5479479,2.09675556 87.5479479,4.94695661 L87.5479479,13.9587873 Z M69.574975,18.491946 L69.574975,0.413797884 L66.5477477,0.413797884 L66.5477477,11.1358296 L65.3582583,8.25858624 L62.0337337,0.413797884 L59.1416416,0.413797884 L59.1416416,18.4921471 L62.2229229,18.4921471 L62.2229229,7.90562857 L63.4931932,10.783073 L66.97998,18.491946 L69.574975,18.491946 Z M53.7437437,14.1760307 L53.7437437,4.72971323 C53.7437437,3.67104127 53.1221221,2.96522646 52.0139139,2.96522646 C50.9329329,2.96522646 50.311011,3.67104127 50.311011,4.72971323 L50.311011,14.1760307 C50.311011,15.2348032 50.9327327,15.9403164 52.0139139,15.9403164 C53.1222222,15.9403164 53.7437437,15.2348032 53.7437437,14.1760307 Z M57.1225225,13.9587873 C57.1225225,16.8361312 55.1763764,18.899491 52.0139139,18.899491 C48.8787788,18.899491 46.9056056,16.8361312 46.9056056,13.9587873 L46.9056056,4.94695661 C46.9056056,2.09675556 48.8788789,0.0337978836 52.0139139,0.0337978836 C55.1763764,0.0337978836 57.1225225,2.09675556 57.1225225,4.94695661 L57.1225225,13.9587873 Z M45.3677678,3.3996127 L45.3677678,0.413797884 L35.3672673,0.413797884 L35.3672673,3.39971323 L38.6918919,3.39971323 L38.6918919,18.4921471 L42.0703704,18.4921471 L42.0703704,3.3996127 L45.3677678,3.3996127 Z M33.8292292,3.3996127 L33.8292292,0.413797884 L23.8286286,0.413797884 L23.8286286,3.39971323 L27.1531532,3.39971323 L27.1531532,18.4921471 L30.5318318,18.4921471 L30.5318318,3.3996127 L33.8292292,3.3996127 Z M18.9122122,14.1760307 L18.9122122,4.72971323 C18.9122122,3.67104127 18.2905906,2.96522646 17.1823824,2.96522646 C16.1013013,2.96522646 15.4794795,3.67104127 15.4794795,4.72971323 L15.4794795,14.1760307 C15.4794795,15.2348032 16.1013013,15.9403164 17.1823824,15.9403164 C18.2905906,15.9403164 18.9122122,15.2348032 18.9122122,14.1760307 Z M22.2908909,13.9587873 C22.2908909,16.8361312 20.3447447,18.899491 17.1823824,18.899491 C14.047047,18.899491 12.073974,16.8361312 12.073974,13.9587873 L12.073974,4.94695661 C12.073974,2.09675556 14.047047,0.0337978836 17.1823824,0.0337978836 C20.3447447,0.0337978836 22.2908909,2.09675556 22.2908909,4.94695661 L22.2908909,13.9587873 Z M10.0546547,14.1760307 C10.0546547,16.8904169 8.37897898,18.899491 5.18948949,18.899491 C1.97307307,18.899491 0,16.7278614 0,13.931745 L0,4.97409947 C0,2.17818413 1.97307307,0.00665502646 5.18948949,0.00665502646 C8.37897898,0.00665502646 10.0546547,2.01532698 10.0546547,4.72991429 L10.0546547,6.92848571 L7.05455455,6.92848571 L7.05455455,4.75705714 C7.05455455,3.69838519 6.45995996,2.96532698 5.24364364,2.96532698 C4.02722723,2.96532698 3.40560561,3.69838519 3.40560561,4.7026709 L3.40560561,14.203073 C3.40560561,15.2074593 4.02722723,15.9403164 5.24364364,15.9403164 C6.45995996,15.9403164 7.05455455,15.2074593 7.05455455,14.1487873 L7.05455455,11.9771577 L10.0546547,11.9771577 L10.0546547,14.1760307 Z" id="Fill-3" fill="#00112C" mask="url(#mask-2)"></path>
            </g>
        </g>
    </g>
</svg>