<svg xmlns="http://www.w3.org/2000/svg" viewBox="0 0 40 40"><defs><style>.cls-1{fill:#09152c;}</style></defs><title>Asset 1</title><g id="Layer_2" data-name="Layer 2"><g id="Layer_1-2" data-name="Layer 1"><path class="cls-1" d="M34,23H7a1,1,0,0,1-1-1V20H33a1,1,0,0,1,1,1v2Zm0-5H6a2,2,0,0,0-2,2v3a2,2,0,0,0,2,2H34a2,2,0,0,0,2-2V20a2,2,0,0,0-2-2Z"/><path class="cls-1" d="M34,5H7A1,1,0,0,1,6,4V2H33a1,1,0,0,1,1,1V5Zm0-5H6A2,2,0,0,0,4,2V5A2,2,0,0,0,6,7H34a2,2,0,0,0,2-2V2a2,2,0,0,0-2-2Z"/><path class="cls-1" d="M6,11H22a1,1,0,0,1,1,1v2H7a1,1,0,0,1-1-1V11Zm0,5H23a2,2,0,0,0,2-2V11a2,2,0,0,0-2-2H6a2,2,0,0,0-2,2v3a2,2,0,0,0,2,2Z"/><path class="cls-1" d="M34,14H30a1,1,0,0,1-1-1V11h4a1,1,0,0,1,1,1v2Zm0-5H29a2,2,0,0,0-2,2v3a2,2,0,0,0,2,2h5a2,2,0,0,0,2-2V11a2,2,0,0,0-2-2Z"/><path class="cls-1" d="M21.17,31.45l-1.51,2.26-1.21-.6a1,1,0,0,0-.9,1.78l2,1A.93.93,0,0,0,20,36a1,1,0,0,0,.83-.45l2-3a1,1,0,0,0-1.66-1.1Z"/><path class="cls-1" d="M34,38H7a1,1,0,0,1-1-1V29H33a1,1,0,0,1,1,1v8Zm0-11H6a2,2,0,0,0-2,2v9a2,2,0,0,0,2,2H34a2,2,0,0,0,2-2V29a2,2,0,0,0-2-2Z"/><path class="cls-1" d="M39,0a1,1,0,0,0-1,1V3a1,1,0,0,0,2,0V1a1,1,0,0,0-1-1Z"/><path class="cls-1" d="M39,12a1,1,0,0,0-1,1v2a1,1,0,0,0,2,0V13a1,1,0,0,0-1-1Z"/><path class="cls-1" d="M39,6a1,1,0,0,0-1,1V9a1,1,0,0,0,2,0V7a1,1,0,0,0-1-1Z"/><path class="cls-1" d="M39,18a1,1,0,0,0-1,1v2a1,1,0,0,0,2,0V19a1,1,0,0,0-1-1Z"/><path class="cls-1" d="M39,24a1,1,0,0,0-1,1v2a1,1,0,0,0,2,0V25a1,1,0,0,0-1-1Z"/><path class="cls-1" d="M39,30a1,1,0,0,0-1,1v2a1,1,0,0,0,2,0V31a1,1,0,0,0-1-1Z"/><path class="cls-1" d="M39,36a1,1,0,0,0-1,1v2a1,1,0,0,0,2,0V37a1,1,0,0,0-1-1Z"/><path class="cls-1" d="M1,0A1,1,0,0,0,0,1V3A1,1,0,0,0,2,3V1A1,1,0,0,0,1,0Z"/><path class="cls-1" d="M1,12a1,1,0,0,0-1,1v2a1,1,0,0,0,2,0V13a1,1,0,0,0-1-1Z"/><path class="cls-1" d="M1,6A1,1,0,0,0,0,7V9A1,1,0,0,0,2,9V7A1,1,0,0,0,1,6Z"/><path class="cls-1" d="M1,18a1,1,0,0,0-1,1v2a1,1,0,0,0,2,0V19a1,1,0,0,0-1-1Z"/><path class="cls-1" d="M1,24a1,1,0,0,0-1,1v2a1,1,0,0,0,2,0V25a1,1,0,0,0-1-1Z"/><path class="cls-1" d="M1,30a1,1,0,0,0-1,1v2a1,1,0,0,0,2,0V31a1,1,0,0,0-1-1Z"/><path class="cls-1" d="M1,36a1,1,0,0,0-1,1v2a1,1,0,0,0,2,0V37a1,1,0,0,0-1-1Z"/></g></g></svg>