<?xml version="1.0" encoding="UTF-8"?>
<svg width="40px" height="40px" viewBox="0 0 40 40" version="1.1" xmlns="http://www.w3.org/2000/svg" xmlns:xlink="http://www.w3.org/1999/xlink">
    <!-- Generator: Sketch 50.2 (55047) - http://www.bohemiancoding.com/sketch -->
    <title>Page 1</title>
    <desc>Created with Sketch.</desc>
    <defs></defs>
    <g id="Page-1" stroke="none" stroke-width="1" fill="none" fill-rule="evenodd">
        <g id="Desktop-HD-Copy-84" transform="translate(-420.000000, -1899.000000)" fill="#00112C">
            <path d="M422,1931 L422,1928 L457,1928 C457.553,1928 458,1928.448 458,1929 L458,1932 L423,1932 C422.447,1932 422,1931.552 422,1931 Z M443.78,1937 L436.22,1937 L436.819,1934 L443.181,1934 L443.78,1937 Z M458,1899 L422,1899 C420.896,1899 420,1899.896 420,1901 L420,1911 C420,1911.552 420.447,1912 421,1912 C421.553,1912 422,1911.552 422,1911 L422,1901 L457,1901 C457.553,1901 458,1901.448 458,1902 L458,1926 L423,1926 C422.447,1926 422,1925.552 422,1925 L422,1918 L427,1918 C427.352,1918 427.677,1917.816 427.857,1917.515 L429.967,1913.999 L434.126,1921.485 C434.309,1921.814 434.661,1922.028 435.035,1921.999 C435.411,1921.986 435.747,1921.764 435.906,1921.423 L441.988,1908.39 L446.09,1917.414 C446.252,1917.771 446.608,1918 447.001,1918 L453,1918 C453.553,1918 454,1917.552 454,1917 C454,1916.448 453.553,1916 453,1916 L447.644,1916 L442.91,1905.586 C442.749,1905.231 442.396,1905.002 442.005,1905 L442,1905 C441.611,1905 441.258,1905.225 441.094,1905.577 L434.923,1918.801 L430.874,1911.514 C430.7,1911.202 430.374,1911.006 430.017,1911 C429.682,1911.007 429.326,1911.179 429.143,1911.485 L426.434,1916 L422,1916 C420.896,1916 420,1916.896 420,1918 L420,1926 L420,1932 L420,1933 C420,1933.552 420.447,1934 421,1934 L422,1934 L434.78,1934 L434.181,1937 L433,1937 C432.447,1937 432,1937.447 432,1938 C432,1938.553 432.447,1939 433,1939 L447,1939 C447.553,1939 448,1938.553 448,1938 C448,1937.447 447.553,1937 447,1937 L445.819,1937 L445.22,1934 L458,1934 L459,1934 C459.553,1934 460,1933.552 460,1933 L460,1932 L460,1926 L460,1901 C460,1899.896 459.104,1899 458,1899 Z" id="Page-1"></path>
        </g>
    </g>
</svg>