<?xml version="1.0" encoding="UTF-8"?>
<svg width="160px" height="70px" viewBox="0 0 160 70" version="1.1" xmlns="http://www.w3.org/2000/svg" xmlns:xlink="http://www.w3.org/1999/xlink">
    <!-- Generator: Sketch 50.2 (55047) - http://www.bohemiancoding.com/sketch -->
    <title>etsy-logobar-svg</title>
    <desc>Created with Sketch.</desc>
    <defs></defs>
    <g id="etsy-logobar-svg" stroke="none" stroke-width="1" fill="none" fill-rule="evenodd">
        <path d="M102.71778,41.6928154 C100.899601,46.7716365 98.6739175,48.0874085 96.6678368,48.0874085 C95.8209532,48.0874085 95.4138237,47.7108844 95.2879118,47.116286 L94.8177254,44.6704224 L93.5008572,44.7331043 C93.2501007,46.1753363 92.9993442,47.7746913 92.6548966,49.0910114 C93.4387234,49.6858116 94.7546396,50 95.7895978,50 C97.9531477,50 101.244395,49.7173401 104.253329,42.5703044 L109.300823,30.6582322 C109.708674,29.6861866 109.864845,29.5921493 111.056147,29.1215879 L111.714581,28.8714083 L111.714581,27.7741432 L108.736224,27.9308624 L105.538841,27.7741432 L105.538841,28.8714083 L106.353447,29.1215879 C107.168225,29.3729213 107.545124,29.6861866 107.545124,30.2505834 C107.545124,30.5324933 107.450683,30.8147783 107.293617,31.2532343 C106.823431,32.4452867 103.907987,39.5296405 103.125083,41.0347851 L103.907785,40.7520964 C102.528235,37.3353122 100.428838,31.6293835 100.115053,30.6584341 C100.052343,30.4701576 100.021016,30.3134384 100.021016,30.1559692 C100.021016,29.6546293 100.365781,29.2469806 101.118252,29.0904344 L102.152836,28.8715814 L102.152836,27.7743163 L97.8576393,27.9310355 L94.4408551,27.7743163 L94.4408551,28.8715814 L95.005223,29.0594541 C95.7888767,29.3102105 95.9771243,29.5298136 96.4472819,30.6269056 C99.0483648,36.5833889 100.271744,39.8430789 101.932483,44.1069487 L102.717809,41.6928154 L102.71778,41.6928154 Z M83.7889113,38.0646492 L82.5955897,38.0959757 C82.6582716,38.7866882 82.6899731,39.6663984 82.6899731,40.4828786 C82.6899731,41.3308584 82.6586177,42.1159832 82.5955897,42.4926804 C82.5955897,42.4926804 84.9824637,43.3712944 87.4006931,43.3712944 C90.6669022,43.3712944 93.2737831,41.8010448 93.2737831,38.7232563 C93.2737831,33.4477646 85.3595359,34.2330913 85.3595359,30.6836165 C85.3595359,29.207808 86.6784521,28.6422862 88.123136,28.6422862 C89.2537757,28.6422862 90.1958216,29.0505119 90.3842712,29.6477352 L91.169569,32.0030807 L92.331766,31.9403988 C92.4261783,30.6839915 92.4886872,29.2393076 92.6773098,28.0775144 C91.6720051,27.6377315 89.5676179,27.3860519 88.2496248,27.3860519 C85.1710863,27.3860519 82.69055,28.7366985 82.69055,31.7517762 C82.69055,36.9963164 90.4159727,35.9285028 90.4159727,39.791993 C90.4159727,41.1731873 89.5676179,42.1469347 87.6524015,42.1469347 C85.8940773,42.1469347 85.0143671,41.2364461 84.6695734,40.3252075 L83.7889113,38.0646492 Z M73.8644873,23.2346807 C73.4247332,25.1818295 72.984979,26.6891952 71.446056,27.6942692 C70.5040389,28.3220979 69.561618,28.5417009 69.1852958,28.5732582 L69.1852958,29.7665798 L71.9802224,29.7665798 L71.9802224,39.4079978 C71.9802224,42.1092909 73.7706231,43.4285533 76.1571509,43.4285533 C78.0102335,43.4285533 79.9256519,42.6434285 80.585384,41.0099489 L79.9256519,40.1619691 C79.6114635,40.6961067 78.6071107,41.4810584 77.3507033,41.4810584 C75.9690763,41.4810584 75.2153069,40.5386375 75.2153069,38.1523404 L75.2153069,29.641591 L79.86372,29.9873079 L80.1146495,27.8511903 L75.2155088,28.039813 L75.2155088,23.2658342 L73.8644873,23.2346807 Z M55.2410662,30.8345665 L55.2410662,22.3551725 C55.2410662,22.0409841 55.2723927,21.8525345 55.8065591,21.8525345 L62.9982193,21.8525345 C64.2546266,21.8525345 64.9455122,22.9204923 65.4481502,24.930323 L65.8564047,26.5322741 L67.0810817,26.5322741 C67.3006847,21.9786483 67.4889323,20 67.4889323,20 C67.4889323,20 64.4113458,20.3453418 62.5897917,20.3453418 L53.3885028,20.3453418 L48.4570837,20.1882476 L48.4570837,21.5073658 L50.1219187,21.8213811 C51.2839138,22.0413303 51.5660256,22.2922887 51.660986,23.3604484 C51.660986,23.3604484 51.7553982,26.5009187 51.7553982,31.6831232 C51.7553982,36.8645488 51.660986,39.9740676 51.660986,39.9740676 C51.660986,40.9160847 51.2839138,41.2614554 50.1219187,41.4819815 L48.4570837,41.7961987 L48.4570837,43.114538 L53.3885028,42.9578476 L61.6167654,42.9578476 C63.4696749,42.9578476 67.7721692,43.114538 67.7721692,43.114538 C67.8660334,41.9836964 68.4946121,36.8645488 68.5888224,36.2999789 L67.4267985,36.2999789 L66.2019196,39.0950786 C65.2281721,41.2929838 63.8152187,41.4502799 62.2446229,41.4502799 L57.5648833,41.4502799 C55.9944606,41.4502799 55.2406624,40.8220474 55.2406624,39.4718047 L55.2406624,32.3111538 C55.2406624,32.3111538 58.6638215,32.3111538 59.8569701,32.4055372 C60.7365071,32.468623 61.2701255,32.7197545 61.5531604,33.9444315 L61.9302326,35.5775649 L63.2799273,35.5775649 L63.1860919,31.4629433 L63.3743396,27.3177739 L62.0242699,27.3177739 L61.5848908,29.1391261 C61.301827,30.3324766 61.1137524,30.5528296 59.8887004,30.6780204 C58.5071023,30.8354896 55.2404893,30.8039611 55.2404893,30.8039611 L55.2404893,30.8351146 L55.2410374,30.8351146 L55.2410374,30.8345665 L55.2410662,30.8345665 Z" id="Fill-1" fill="#00112C"></path>
    </g>
</svg>