<?xml version="1.0" encoding="UTF-8"?>
<svg width="160px" height="70px" viewBox="0 0 160 70" version="1.1" xmlns="http://www.w3.org/2000/svg" xmlns:xlink="http://www.w3.org/1999/xlink">
    <!-- Generator: Sketch 50.2 (55047) - http://www.bohemiancoding.com/sketch -->
    <title>tory-burch-logobar-svg</title>
    <desc>Created with Sketch.</desc>
    <defs></defs>
    <g id="tory-burch-logobar-svg" stroke="none" stroke-width="1" fill="none" fill-rule="evenodd">
        <g id="Group-3" transform="translate(0.000000, 19.000000)" fill="#00112C">
            <path d="M57.0380488,15.8339725 C57.0380488,8.26353434 63.1141463,2.1056586 70.5825474,2.1056586 C78.0513821,2.1056586 84.1266125,8.26353434 84.1266125,15.8339725 C84.1266125,23.4044107 78.0513821,29.5622865 70.5825474,29.5622865 C63.1141463,29.5622865 57.0380488,23.4044107 57.0380488,15.8339725 M54.9844986,15.8339725 C54.9844986,24.5519529 61.9820054,31.6442119 70.5825474,31.6442119 C79.1830894,31.6442119 86.1805962,24.5519529 86.1805962,15.8339725 C86.1805962,7.11643165 79.1830894,0.0237331589 70.5825474,0.0237331589 C61.9820054,0.0237331589 54.9844986,7.11643165 54.9844986,15.8339725" id="Fill-1"></path>
            <path d="M72.8316531,16.3437959 L76.6287263,16.3437959 C77.755664,16.3437959 78.4234146,16.5556364 78.8531165,17.5774807 C79.2091057,16.7059464 79.8174526,16.3600576 80.8572358,16.3437959 L81.2557182,16.3437959 L81.2557182,21.427087 L76.3173984,21.427087 C76.7778862,21.0201073 77.0142005,20.4940222 77.0142005,19.8782786 C77.0142005,18.7641387 76.1543631,17.9383126 74.9376694,17.9383126 C73.5596748,17.9383126 72.7427642,18.7641387 72.7427642,19.8782786 C72.7427642,20.6289496 73.1291057,21.1708568 73.8697019,21.427087 C73.142981,21.7861609 72.7427642,22.4186056 72.7427642,23.2009209 C72.7427642,24.4350451 73.6177778,25.09386 75.3539295,25.09386 C75.5607588,25.09386 75.7988076,25.0784774 76.0507317,25.0644133 L76.0507317,26.7775958 L72.8316531,26.7775958 C71.6596206,26.7775958 71.0222222,26.5380667 70.6076965,25.529847 C70.1914363,26.5380667 69.5540379,26.7775958 68.3815718,26.7775958 L65.1629268,26.7775958 L65.1629268,25.0644133 C65.4157182,25.0784774 65.6524661,25.09386 65.8749051,25.09386 C67.5954472,25.09386 68.4860705,24.4350451 68.4860705,23.2009209 C68.4860705,22.4186056 68.0702439,21.7861609 67.3426558,21.427087 C68.0854201,21.1708568 68.4704607,20.6289496 68.4704607,19.8782786 C68.4704607,18.7641387 67.6695935,17.9383126 66.2907317,17.9383126 C65.0736043,17.9383126 64.2142005,18.7641387 64.2142005,19.8782786 C64.2142005,20.4940222 64.436206,21.0201073 64.8958266,21.427087 L59.9575068,21.427087 L59.9575068,16.3437959 L60.3568564,16.3437959 C61.3949051,16.3600576 62.0036856,16.7059464 62.3601084,17.5774807 C62.7750678,16.5697005 63.4128997,16.3437959 64.5844986,16.3437959 L68.3815718,16.3437959 C69.479458,16.3437959 70.161084,16.5253107 70.6076965,17.5774807 C71.0222222,16.5697005 71.6596206,16.3437959 72.8316531,16.3437959" id="Fill-4"></path>
            <path d="M68.3338753,15.3245886 L64.5372358,15.3245886 C63.4098645,15.3245886 62.7425474,15.1131877 62.3119783,14.0904644 C61.9559892,14.9628777 61.3480759,15.307448 60.3095935,15.3245886 L59.9085095,15.3245886 L59.9085095,10.2430556 L64.8489973,10.2430556 C64.3885095,10.6487168 64.1513279,11.1748018 64.1513279,11.790985 C64.1513279,12.9029274 65.0115989,13.7296324 66.2282927,13.7296324 C67.6071545,13.7296324 68.421897,12.9029274 68.421897,11.790985 C68.421897,11.0389954 68.0377236,10.4979673 67.2949593,10.2430556 C68.0225474,9.88178417 68.421897,9.24977894 68.421897,8.4674637 C68.421897,7.23465795 67.5473171,6.57408502 65.8120325,6.57408502 C65.6052033,6.57408502 65.3671545,6.58902812 65.1160976,6.60485023 L65.1160976,4.88990974 L68.3338753,4.88990974 C69.5059079,4.88990974 70.1441734,5.13163636 70.5591328,6.13853761 C70.9740921,5.13163636 71.6114905,4.88990974 72.783523,4.88990974 L76.0030352,4.88990974 L76.0030352,6.60485023 C75.7506775,6.58902812 75.5126287,6.57408502 75.2893225,6.57408502 C73.5705149,6.57408502 72.6790244,7.23465795 72.6790244,8.4674637 C72.6790244,9.24977894 73.0957182,9.88178417 73.8220054,10.2430556 C73.0796748,10.4979673 72.6946341,11.0389954 72.6946341,11.790985 C72.6946341,12.9029274 73.4963686,13.7296324 74.8752304,13.7296324 C76.0910569,13.7296324 76.9513279,12.9029274 76.9513279,11.790985 C76.9513279,11.1748018 76.7288889,10.6487168 76.2679675,10.2430556 L81.2080217,10.2430556 L81.2080217,15.3245886 L80.8069377,15.3245886 C79.7693225,15.307448 79.16271,14.9628777 78.8058537,14.0904644 C78.3913279,15.0978051 77.7530623,15.3245886 76.5810298,15.3245886 L72.783523,15.3245886 C71.6869377,15.3245886 71.0035772,15.1435134 70.5591328,14.0904644 C70.1441734,15.0978051 69.5059079,15.3245886 68.3338753,15.3245886" id="Fill-5"></path>
            <polyline id="Fill-7" points="10.9398374 10.304586 10.9398374 12.3451982 6.86655827 12.3451982 6.86655827 21.4692793 4.08888889 21.4692793 4.08888889 12.3451982 0 12.3451982 0 10.304586 10.9398374 10.304586"></polyline>
            <path d="M16.2592954,12.3280576 C14.2161518,13.2444212 14.059187,15.2230634 14.059187,15.9658234 C14.059187,16.1890909 14.0752304,16.9147103 14.3557724,17.5787992 C14.4342547,17.7844866 14.5287805,17.991053 14.7776694,18.3391393 C14.8557182,18.4340719 15.058645,18.7329339 15.3396206,18.9711445 C15.7766938,19.3495566 16.6200542,19.8242198 17.9772358,19.8242198 C18.2256911,19.8242198 18.8817344,19.8101557 19.5681301,19.556123 C21.7374526,18.7667757 21.9247696,16.5991472 21.9247696,15.903414 C21.9247696,15.4296298 21.8471545,14.2108882 20.9404878,13.1824513 C20.1613008,12.3280576 18.9910027,11.9180013 17.8506233,11.9654676 C17.602168,11.9654676 16.9469919,12.0291956 16.2592954,12.3280576 M21.8146341,10.747605 C21.9872087,10.8399006 22.2994038,10.9994402 22.6887805,11.2837986 C23.000542,11.5224487 23.3131707,11.8063676 23.5629268,12.1232492 C24.0303523,12.6761439 24.7327913,13.9093891 24.7327913,15.7755186 C24.7327913,15.9979071 24.7180488,16.5837646 24.6083469,17.1995082 C24.4518157,17.9444657 24.0303523,19.556123 22.3618428,20.6935566 C21.595664,21.199864 20.1925203,21.8349457 18.0071545,21.8349457 C14.7317073,21.8349457 12.9990244,20.4891877 12.2029268,19.3025298 C11.8282927,18.7667757 11.2195122,17.5941818 11.2195122,15.8871524 C11.2195122,13.3085886 12.4526829,11.9654676 13.2639566,11.3321439 C14.4659079,10.3982001 16.0724119,10.0035265 17.5540379,9.95693918 C18.9281301,9.89233224 20.5823306,10.1279058 21.8146341,10.747605" id="Fill-9"></path>
            <path d="M29.7721409,15.001554 L34.1888347,15.001554 C34.2044444,15.001554 34.6406504,15.001554 34.875664,14.9532086 C35.2026016,14.859155 35.8426016,14.5901792 35.8426016,13.6742551 C35.8426016,13.5630608 35.8269919,13.1503676 35.6244986,12.8343649 C35.2819512,12.2981714 34.6731707,12.2810307 34.1112195,12.2643296 L29.7721409,12.2643296 L29.7721409,15.001554 Z M34.6111653,10.304586 C35.561626,10.3199686 35.9843902,10.3674349 36.4370732,10.5080759 C37.8549593,10.9357122 38.6350136,12.171155 38.6350136,13.6395343 C38.6350136,13.9256508 38.6198374,14.4811825 38.3405962,15.1123087 C37.8402168,16.2528188 36.8880217,16.5991472 35.7641192,16.8030765 L39.1184824,21.4692793 L35.858645,21.4692793 L32.9253117,16.9784382 L29.7721409,16.9784382 L29.7721409,21.4692793 L27.0261247,21.4692793 L27.0261247,10.304586 L34.6111653,10.304586 Z" id="Fill-10"></path>
            <path d="M42.2087805,10.304586 L45.140813,14.5115082 C45.2982114,14.716756 45.3749593,14.8270713 45.4543089,15.0648424 C45.5020054,14.938705 45.5462331,14.8270713 45.7209756,14.5901792 L48.7158808,10.304586 L52.0693767,10.304586 L46.8114905,17.2790582 L46.8114905,21.4692793 L44.0663415,21.4692793 L44.0663415,17.2790582 L38.8210298,10.304586 L42.2087805,10.304586" id="Fill-11"></path>
            <path d="M93.5011382,19.6211694 L97.6533333,19.6211694 C97.9642276,19.6211694 98.2928997,19.6211694 98.603794,19.5112937 C98.9792954,19.3847168 99.4480217,19.0216874 99.4480217,18.1040052 C99.4480217,17.9747914 99.4172358,17.4698025 99.1197832,17.1243532 C98.8080217,16.7740693 98.4160434,16.7578077 97.9789702,16.7437436 L93.5011382,16.7578077 L93.5011382,19.6211694 Z M93.5011382,14.7971851 L97.4478049,14.7971851 C97.9789702,14.7971851 98.5131707,14.7971851 98.8080217,14.260552 C98.9792954,13.9753146 98.9792954,13.6606305 98.9792954,13.5498757 C98.9792954,13.4527456 98.9792954,13.2329941 98.8869377,12.996102 C98.622439,12.2849863 97.8406504,12.3469562 97.6672087,12.3469562 L93.5011382,12.3469562 L93.5011382,14.7971851 Z M97.9152304,10.4179778 C98.7460163,10.4337999 99.6331707,10.4474245 100.384607,10.8420981 C100.898862,11.1290935 101.631653,11.7443976 101.631653,13.1530046 C101.631653,13.6408528 101.536694,14.7497188 100.305257,15.3360157 C100.196423,15.382603 100.057669,15.4467704 99.8070461,15.525881 C100.305257,15.6511393 100.49084,15.7139882 100.742331,15.8405651 C102.115122,16.5367377 102.192737,17.850412 102.192737,18.372102 C102.192737,18.7984199 102.162385,20.0975906 101.087046,20.9207796 C100.257995,21.5677279 99.3062331,21.581792 98.339729,21.581792 L90.7724661,21.581792 L90.7724661,10.4179778 L97.9152304,10.4179778 Z" id="Fill-12"></path>
            <path d="M107.4671,10.4175383 L107.4671,16.9951393 C107.499621,17.850412 107.592412,18.5632858 108.340813,19.1003584 C109.214959,19.7323636 110.48065,19.7020379 110.728672,19.7020379 C110.930732,19.7020379 112.022547,19.7020379 112.790027,19.259019 C113.302547,18.972463 113.554905,18.5786684 113.664173,18.372102 C113.789051,18.1185088 113.819404,17.9277646 113.849322,17.3920105 L113.849322,10.4175383 L116.594472,10.4175383 L116.594472,16.9160288 C116.580163,17.9607273 116.580163,18.8318221 116.033388,19.7323636 C115.941897,19.8765206 115.722927,20.2083453 115.379512,20.5243479 C114.192304,21.5993721 112.226341,21.9615226 110.712629,21.9615226 C110.355772,21.9615226 109.511545,21.947019 108.558916,21.7417711 C106.358808,21.2508463 105.423523,20.0975906 105.030678,19.1781504 C104.798266,18.6256952 104.737127,18.1185088 104.721951,16.9010857 L104.721951,10.4175383 L107.4671,10.4175383" id="Fill-13"></path>
            <path d="M122.479783,15.1140667 L126.894743,15.1140667 C126.909919,15.1140667 127.347859,15.1140667 127.583306,15.0666004 C127.906775,14.9721073 128.546775,14.702692 128.546775,13.7867678 C128.546775,13.6751341 128.534201,13.2633198 128.331274,12.9464382 C127.986992,12.4106841 127.377344,12.393983 126.81626,12.3772819 L122.479783,12.3772819 L122.479783,15.1140667 Z M127.314472,10.4175383 C128.269702,10.4337999 128.689431,10.4795082 129.141247,10.6205886 C130.56,11.048225 131.341355,12.2845468 131.341355,13.7524866 C131.341355,14.0390425 131.32748,14.5928162 131.04477,15.2248215 C130.546125,16.3648921 129.595664,16.7103414 128.468726,16.9160288 L131.824824,21.581792 L128.564119,21.581792 L125.629919,17.0913905 L122.479783,17.0913905 L122.479783,21.581792 L119.731165,21.581792 L119.731165,10.4175383 L127.314472,10.4175383 Z" id="Fill-14"></path>
            <path d="M142.919458,13.9274088 C142.750352,13.66107 142.43729,13.1688267 141.813767,12.7416298 C141.45084,12.5042982 140.704173,12.1241282 139.611057,12.1241282 C139.330515,12.1241282 138.629377,12.1421478 137.895285,12.4577109 C136.460488,13.0576324 135.695176,14.4482198 135.695176,16.0172453 C135.695176,16.7903309 135.929322,17.6442852 136.381572,18.2921125 C136.476531,18.4353905 136.710678,18.7197489 137.067534,19.0054258 C137.489864,19.3517541 138.333659,19.9064068 139.688672,19.9064068 C141.297778,19.9064068 142.153279,19.2247377 142.591653,18.7052453 C142.778103,18.4991184 142.902981,18.2921125 143.154472,17.8187678 L146.056152,17.7858051 C145.903089,18.3558404 145.80813,18.5632858 145.666775,18.8454467 C145.4929,19.194412 145.198482,19.7020379 144.525962,20.3037175 C143.621897,21.1084474 142.173225,21.9615226 139.455827,21.9615226 C138.832304,21.9615226 136.649106,21.947019 134.932466,20.6513643 C132.931816,19.1495827 132.839024,16.807032 132.839024,15.9851615 C132.839024,14.8459699 133.103523,13.66107 133.728347,12.7104251 C133.947317,12.3772819 134.151545,12.1421478 134.429485,11.8709745 C134.807154,11.5079451 134.992737,11.3813682 135.213008,11.2398483 C135.929322,10.7489235 137.410949,10.0698914 139.611057,10.0698914 C140.221138,10.0698914 142.341897,10.1309823 144.059837,11.2851171 C144.996423,11.9338234 145.508943,12.7104251 145.713171,13.0725755 C145.790352,13.2329941 145.870569,13.3894572 145.931274,13.5494362 L142.919458,13.9274088" id="Fill-15"></path>
            <polyline id="Fill-16" points="150.442493 10.4175383 150.442493 14.7202721 157.089214 14.7202721 157.089214 10.4175383 159.850407 10.4175383 159.850407 21.581792 157.089214 21.581792 157.089214 16.7903309 150.442493 16.7903309 150.442493 21.581792 147.679133 21.581792 147.679133 10.4175383 150.442493 10.4175383"></polyline>
        </g>
    </g>
</svg>