<?xml version="1.0" encoding="UTF-8"?>
<svg width="160px" height="70px" viewBox="0 0 160 70" version="1.1" xmlns="http://www.w3.org/2000/svg" xmlns:xlink="http://www.w3.org/1999/xlink">
    <!-- Generator: Sketch 50.2 (55047) - http://www.bohemiancoding.com/sketch -->
    <title>cathay-pacific-logobar-svg</title>
    <desc>Created with Sketch.</desc>
    <defs></defs>
    <g id="cathay-pacific-logobar-svg" stroke="none" stroke-width="1" fill="none" fill-rule="evenodd">
        <g id="cathay_pacific" transform="translate(25.000000, 12.000000)" fill="#00112C">
            <path d="M108.109572,42.3260924 C106.515077,43.0746275 104.014976,42.6416797 103.505985,40.0396519 C103.400843,39.5025264 103.417241,38.9300321 103.453896,38.3787591 C103.552286,36.8958363 104.409661,35.7447385 105.665901,35.3363881 C107.085642,34.8748236 108.454098,35.2815662 109.441695,36.4556539 C109.486228,36.5088681 109.548445,36.5472916 109.652944,36.6345886 C109.652944,36.1532496 109.631883,35.7468284 109.659696,35.3439442 C109.6814,35.0270707 109.536066,34.8970095 109.262117,34.8039249 C107.921153,34.3479873 106.554143,34.2513658 105.167038,34.5106844 C103.033488,34.9092279 101.48658,36.6161003 101.367451,38.6765012 C101.242856,40.8340059 102.506169,42.633159 104.636344,43.2992202 C105.083117,43.4387667 105.551113,43.5103084 106.009462,43.6131999 L107.024229,43.6131999 C107.660709,43.4673834 108.300404,43.3336246 108.931579,43.1669083 C109.087684,43.1259125 109.296039,43.0059797 109.342662,42.8738285 C109.558252,42.2629106 109.725289,41.6349513 109.883485,41.1018451 C109.317582,41.5003886 108.763255,42.0193473 108.109572,42.3260924" id="Fill-1"></path>
            <path d="M2.64860485,40.0075144 C2.55552026,39.4816427 2.55407335,38.9298874 2.58461924,38.3943696 C2.66773623,36.9382951 3.54568952,35.7523106 4.79405196,35.341388 C6.19208927,34.880788 7.56167068,35.2716147 8.54315847,36.4077612 C8.59814108,36.4714253 8.67161199,36.5190125 8.78768639,36.6174025 C8.78768639,36.1524618 8.76919808,35.7634036 8.79331326,35.3767569 C8.81357001,35.0523274 8.68913569,34.8954179 8.38030063,34.794938 C7.03451286,34.3571671 5.66589606,34.2378774 4.28152401,34.5211503 C1.98945662,34.9899494 0.501710838,36.7735081 0.491260927,39.0134867 C0.481293319,41.1353009 1.96276916,42.8941013 4.19921087,43.4128992 C4.50901054,43.4847624 4.82122172,43.5468188 5.13230753,43.6132159 L6.14723504,43.6132159 C6.78484038,43.4683641 7.42775105,43.3423221 8.05683569,43.1669244 C8.23657416,43.1169256 8.46100609,42.95455 8.51968636,42.7912099 C8.72868458,42.2092302 8.8751441,41.6049038 9.02176439,41.091572 C8.48383513,41.4798264 7.94912123,41.9875313 7.3174643,42.2982956 C5.68213362,43.1030995 3.11145552,42.6224036 2.64860485,40.0075144" id="Fill-3"></path>
            <path d="M81.7370518,42.3493233 C79.799156,43.1978561 77.7119069,42.2707078 77.2148126,40.3107869 C77.0722115,39.7485816 77.060154,39.1397538 77.0734977,38.554398 C77.107902,37.04736 77.9746015,35.8023737 79.2371116,35.361066 C80.6618363,34.8633287 82.0304531,35.2485285 83.0694958,36.4377283 C83.1161185,36.491264 83.1784964,36.531456 83.2918378,36.6264698 C83.2918378,36.1742298 83.2712595,35.802213 83.2976254,35.4335723 C83.3233483,35.0724876 83.1921617,34.8949999 82.8384724,34.7819801 C81.5238736,34.3617329 80.1912688,34.2506423 78.8388896,34.5102824 C76.5302631,34.9535194 75.010846,36.7423834 74.9917147,39.0050303 C74.9737087,41.1197707 76.4648306,42.8965771 78.6908224,43.4108735 C79.000622,43.4824152 79.3121901,43.5459185 79.6231152,43.6131195 L80.6378819,43.6131195 C81.2758088,43.4690715 81.9164687,43.3362772 82.5495726,43.1727763 C82.7105012,43.1311374 82.9328431,43.0226191 82.9788228,42.8925579 C83.1952163,42.2779424 83.3603249,41.6449993 83.5654647,40.9440515 C83.225923,41.2678379 82.9768935,41.5485386 82.6844568,41.7723275 C82.3920201,41.9962771 82.0733782,42.20206 81.7370518,42.3493233" id="Fill-5"></path>
            <path d="M52.0717324,9.48475039 C52.1219059,9.69977977 52.1580699,9.85616477 52.2092208,10.0751038 C50.9679149,9.18338346 49.7754792,8.32619817 48.5827178,7.46933867 C48.5419925,7.50322209 48.5012673,7.53710551 48.460542,7.57098892 C48.8081728,8.04209874 49.1558037,8.51353437 49.5034345,8.98464419 C49.4043907,9.05371423 49.3053468,9.12311007 49.2059772,9.19250592 C48.1568945,7.68958088 47.1081375,6.18665585 46.058729,4.68405662 C46.0372261,4.69545969 46.0150715,4.70653697 45.9932428,4.71761424 C46.1734114,5.12714746 46.3532541,5.53700649 46.5330969,5.94653971 C46.4461077,5.98400695 46.3591185,6.0218 46.2718036,6.05926724 C45.6550602,4.9306888 45.0383169,3.80211037 44.4215735,2.67353194 C44.3883417,2.69145105 44.3554357,2.70937017 44.3225297,2.72728928 L46.1685243,6.60596314 C46.0821868,6.6460368 45.9955234,6.68643626 45.9085343,6.72650991 C45.1337769,5.21902365 44.3586937,3.71153739 43.5836106,2.20405113 C43.5428853,2.22131864 43.50216,2.23858615 43.4614348,2.25585366 C44.0117145,3.50334985 44.5619942,4.75117185 45.112274,5.99866805 C45.0386427,6.03189986 44.9650114,6.06545748 44.8913801,6.09868929 C44.1892766,4.66939553 43.4871731,3.24010177 42.6778808,1.59252061 C42.7622635,2.14768737 42.8082016,2.44840269 42.8541397,2.74911802 C42.7902825,2.76540812 42.7267511,2.78169823 42.6635455,2.79831414 C42.285615,1.86554276 41.9080104,0.932771378 41.5304058,0 C41.467526,0.0234577503 41.4043204,0.0469155007 41.3414406,0.070373251 L43.4516607,5.74714884 C43.3783552,5.77386461 43.3053756,5.80025458 43.2323959,5.82697035 L41.1257596,0.821672866 L41,0.870868982 C41.6141369,2.5435369 42.2282739,4.21620482 42.8424108,5.88887274 C42.491522,5.68589804 42.3253629,5.40245023 42.1728875,5.11150896 C42.032141,4.84304804 41.9060556,4.56676787 41.77378,4.29407152 C44.2114312,11.0919321 48.2774412,16.5732264 54.9009977,20.1440173 C50.7854657,22.7836658 46.8038384,25.3376284 42.7391315,27.9446967 C42.934287,27.9772769 43.0069409,28.0140926 43.0580918,27.9945444 C48.649833,25.8657536 54.2780641,23.8268841 59.8137674,21.5612564 C62.7153608,20.3737078 65.4654562,18.809532 68.2552995,17.3603643 C68.7765828,17.0896227 69.1620067,16.5559589 69.6099846,16.1434935 C69.5832688,16.0095888 69.556553,15.87601 69.5295115,15.7421053 C62.9114936,15.8440813 57.2549178,13.3533244 52.0717324,9.48475039" id="Fill-7"></path>
            <path d="M36.7806185,34.5354426 L34.3536669,34.5354426 C34.9980244,35.7326809 34.5498036,36.9947086 34.7223076,38.2708839 C33.2514424,38.2708839 31.8995455,38.2667039 30.5478093,38.2745815 C30.2719316,38.27635 30.2008722,38.1443595 30.2028014,37.9014393 C30.2082676,37.2419695 30.1669502,36.5800883 30.2153413,35.9243162 C30.250871,35.4442633 30.3989382,34.9727312 30.4880036,34.5391403 L28.1350052,34.5391403 C28.2242314,34.9494198 28.3801762,35.3465165 28.3853208,35.7452208 C28.4113652,37.7061064 28.4120082,39.6674743 28.3885361,41.6281991 C28.3814624,42.2141979 28.2673172,42.7989107 28.2020454,43.387321 L30.4841452,43.387321 C30.3891314,42.9426371 30.2388135,42.5117793 30.2159844,42.0744907 C30.1728986,41.2483046 30.2175921,40.4179386 30.196853,39.5899841 C30.1876893,39.2192535 30.3034421,39.0875846 30.6878381,39.0946584 C31.8876486,39.1166836 33.0881022,39.1014106 34.2883951,39.105269 C34.4155625,39.1057514 34.5425691,39.1366188 34.7396705,39.1626632 C34.5321192,40.585941 34.9964168,42.0159712 34.4023795,43.3906971 L36.7590756,43.3906971 C36.6767624,42.8977829 36.5325537,42.4135501 36.5256407,41.9273881 C36.4975063,39.932902 36.4938086,37.9377728 36.5224253,35.9432868 C36.5293383,35.4629124 36.6941254,34.984628 36.7806185,34.5354426" id="Fill-9"></path>
            <path d="M61.7545874,39.2482721 C61.654429,39.2243176 61.5451068,39.0011719 61.5388369,38.8650015 C61.5327277,38.730278 61.5290301,38.5955545 61.5269401,38.4608311 C61.5206701,38.0563391 61.5288693,37.6510434 61.5288693,37.2463907 C61.5295124,36.7065322 61.5378723,36.1666737 61.5256539,35.6272975 C61.5197055,35.3623521 61.6256515,35.2618722 61.884327,35.2777882 C62.2373733,35.2994919 62.595564,35.2755375 62.943948,35.3245716 C64.0725384,35.4830888 64.6294383,36.1364493 64.6413351,37.2758112 C64.6530711,38.4146907 64.0249511,39.2762457 62.9831754,39.4183645 C62.5867218,39.4723825 62.1568286,39.3448935 61.7545874,39.2482721 M66.3920971,37.4328814 C66.483574,35.994009 65.4625373,34.7704048 63.8583956,34.6091547 C62.5365622,34.4760389 61.1957583,34.5298961 59.8633143,34.502244 C59.6739297,34.4982248 59.4842236,34.5017617 59.4374402,34.5017617 C59.5335794,35.0249004 59.6895242,35.5039886 59.6978841,35.9853276 C59.7285908,37.7582755 59.7144432,39.5323489 59.7086556,41.3057791 C59.7064048,42.0146046 59.7993286,42.7409538 59.348214,43.3812922 L61.838669,43.3812922 C61.2642454,42.2756916 61.6488021,41.1337575 61.5174548,40.0466453 C62.2235472,40.1172223 62.8405743,40.2365121 63.4561544,40.2291168 C65.0311971,40.2096639 66.2935464,38.9794682 66.3920971,37.4328814" id="Fill-11"></path>
            <path d="M12.627675,40.0412756 C13.1054771,39.0332611 13.5472671,38.1016114 14.0562582,37.0281644 C14.5197519,38.0972706 14.9264946,39.0361549 15.3620148,40.0412756 L12.627675,40.0412756 Z M14.7451485,34.6783813 C14.668623,34.5187388 14.5774676,34.3663309 14.4650909,34.1586188 C14.3552864,34.3655271 14.2726517,34.5082889 14.2019139,34.6566776 C13.1053163,36.957105 12.0239917,39.2652491 10.9056904,41.5552266 C10.5878524,42.2061756 10.1629429,42.8047144 9.80025061,43.4059862 L10.9320563,43.4059862 L11.6669262,43.4059862 C11.2569682,42.9477978 11.4187007,42.5396082 11.6146767,42.1327047 C11.7831614,41.7830346 11.9214218,41.4132685 12.1341176,41.0928582 C12.2403852,40.9327334 12.4763924,40.7825762 12.6651339,40.7673033 C13.2025808,40.7238959 13.7577123,40.823572 14.2843878,40.7369181 C15.3880591,40.5552505 16.00589,40.9885198 16.3097413,42.0407455 C16.4415709,42.4968439 16.6754882,42.9133934 16.3213166,43.3746364 L19.1522778,43.3746364 C18.8540535,42.9125896 18.4871812,42.4510251 18.2341326,41.9336741 C17.0542573,39.5234423 15.906214,37.0976161 14.7451485,34.6783813 Z" id="Fill-13"></path>
            <path d="M68.3363271,40.0351504 C68.803197,39.044338 69.2451479,38.1064183 69.7562289,37.0218783 C70.2227772,38.1012738 70.6267868,39.0358173 71.0587701,40.0351504 L68.3363271,40.0351504 Z M70.4382061,34.6629315 C70.3631276,34.5066652 70.2745445,34.357151 70.1544509,34.1343268 C69.4353362,35.6404001 68.7961232,37.0758963 68.0734717,38.468146 C67.2143282,40.1232511 66.7169125,41.9769046 65.405529,43.3897325 L67.3379587,43.3897325 C66.982501,42.935081 67.1164206,42.5154769 67.3287949,42.0953905 C67.4964758,41.7638872 67.6246078,41.4071433 67.8303907,41.1020059 C67.9387482,40.9407557 68.1686463,40.7832032 68.35578,40.7677695 C68.8933878,40.7232368 69.4478761,40.8211444 69.9758378,40.7373844 C71.0705061,40.5640766 71.7090761,40.9640671 72.004889,42.0357456 C72.1310917,42.4926479 72.4053617,42.9071074 72.0081043,43.3779965 L74.8204165,43.3779965 C74.4856978,42.8162736 74.0961573,42.2543899 73.7988975,41.6471697 C72.6629118,39.3269679 71.5569897,36.991654 70.4382061,34.6629315 Z" id="Fill-15"></path>
            <path d="M40.9160662,40.0371921 C41.3977268,39.0227469 41.8417676,38.0875603 42.3460964,37.0255278 C42.8038025,38.0857918 43.211349,39.0298207 43.6460653,40.0371921 L40.9160662,40.0371921 Z M42.7613597,34.113218 C42.64416,34.349386 42.5674737,34.4987393 42.4952889,34.6500219 C41.3888845,36.9645968 40.2958238,39.2856024 39.1688411,41.5900489 C38.8579161,42.2258858 38.4460288,42.8125277 38.0897672,43.4059219 L39.4384488,43.4059219 L39.8845796,43.4059219 C39.8342593,43.384379 39.7840997,43.3629968 39.7337794,43.341454 C39.7757398,42.9662218 39.7641645,42.5744305 39.8734867,42.2200981 C39.9964741,41.8215546 40.19872,41.4373194 40.4262066,41.0855593 C40.529098,40.9262384 40.7697675,40.7826727 40.9593128,40.7669174 C41.4797184,40.7238316 42.0202199,40.8288131 42.5274425,40.7363715 C43.6873826,40.5249618 44.3029628,41.0201268 44.6185501,42.09277 C44.7474859,42.5310232 44.98703,42.9335859 44.6138878,43.3728037 L47.4205731,43.3728037 C47.1067543,42.8675103 46.7358628,42.3700945 46.4681843,41.8221977 C45.2317187,39.2915508 44.0241913,36.7469171 42.7613597,34.113218 Z" id="Fill-17"></path>
            <path d="M53.3560261,35.6525059 C52.9957453,36.2036182 52.6263008,36.7486212 52.259107,37.2950712 C51.9628118,37.7357359 51.6641051,38.1746321 51.3155604,38.6895716 C50.6268309,37.6566381 49.9959778,36.7036062 49.3577294,35.7557189 C49.0845848,35.34978 48.9516298,34.9472173 49.3413311,34.5382239 L46.2756487,34.5382239 C46.5965414,34.9147422 46.9458899,35.2800068 47.2434712,35.6832126 C47.7444239,36.3624568 48.1598481,37.1113135 48.7064588,37.7489188 C49.615601,38.8091829 50.0181638,39.9790906 49.8442129,41.3711795 C49.7602921,42.0435107 49.9675219,42.7587669 49.4522609,43.3918708 L51.9044531,43.3918708 C51.8223007,42.9401131 51.7052617,42.5394796 51.6853265,42.134023 C51.649636,41.4092815 51.6407938,40.6797169 51.6845226,39.95594 C51.7046186,39.6245975 51.8120116,39.2612621 51.9906246,38.983616 C52.5745335,38.0749561 53.1872198,37.1828552 53.8314167,36.3158341 C54.3132379,35.6671358 54.8604917,35.0668286 55.3120887,34.5250409 L53.2549031,34.5250409 C53.6830279,34.9059 53.598464,35.2816145 53.3560261,35.6525059" id="Fill-19"></path>
            <path d="M90.3952853,35.7438703 C90.421169,37.7541116 90.4206866,39.764996 90.398983,41.7753981 C90.3931953,42.3123628 90.2801755,42.8483628 90.2150646,43.396742 L92.5187072,43.396742 C92.4243365,43.0330851 92.269517,42.6863088 92.2552087,42.3335842 C92.2151775,41.3553117 92.2230551,40.374467 92.2423473,39.39523 C92.2449196,39.2722425 92.4333395,39.0455599 92.529961,39.0484537 C93.4608069,39.0764273 94.4218772,38.8381693 95.3176757,39.3511796 L95.3176757,37.9224356 C94.4125526,38.4341597 93.4519647,38.1981525 92.5207972,38.2229107 C92.426748,38.225483 92.2470095,37.991405 92.2421865,37.8623084 C92.2151775,37.1198824 92.2177498,36.375688 92.2405788,35.6331013 C92.2441157,35.5117215 92.4032759,35.2879327 92.4814091,35.2917911 C93.671252,35.3527221 94.9215437,34.9745961 96.0400057,35.7978883 L96.0400057,34.5247676 L90.1401467,34.5247676 C90.2332313,34.9499986 90.3901408,35.3459699 90.3952853,35.7438703" id="Fill-21"></path>
            <path d="M18.5595267,36.0068544 C19.4921411,35.063147 20.5496721,35.2941704 21.6126692,35.3134626 C21.6247268,35.5862856 21.642572,35.8026792 21.6428935,36.0192335 C21.6451443,37.8609901 21.6617034,39.7030683 21.6343728,41.5443426 C21.6252091,42.1610481 21.5019001,42.7759852 21.4316446,43.3835269 L23.678697,43.3835269 C23.6068337,42.8970434 23.4823994,42.4285658 23.4777371,41.9588021 C23.4578019,39.9146388 23.4719495,37.8698323 23.4762902,35.8253475 C23.4766118,35.6624896 23.4957431,35.4999533 23.508283,35.3020481 C24.5820516,35.2795406 25.6336342,35.103339 26.5062821,35.9645724 L26.5062821,34.4970834 L18.5595267,34.4970834 L18.5595267,36.0068544 Z" id="Fill-23"></path>
            <path d="M87.6317662,34.5352818 L85.2671925,34.5352818 C85.3577048,34.9415422 85.5178296,35.3371919 85.5228134,35.7349316 C85.548697,37.7942071 85.5477324,39.853965 85.5255464,41.9134013 C85.5204019,42.3998848 85.3975752,42.885243 85.3258728,43.3903756 L87.6004164,43.3903756 C87.5110295,42.9042136 87.3619977,42.4527774 87.3562101,41.9997336 C87.3300049,39.9912607 87.3259857,37.9816625 87.3583,35.9733504 C87.3661777,35.4804361 87.5410931,34.9902549 87.6317662,34.5352818" id="Fill-25"></path>
            <path d="M99.9633203,34.5214719 L97.6436008,34.5214719 C97.7318623,35.0196915 97.8878072,35.5148565 97.8953633,36.0121115 C97.9249446,37.9392358 97.9220507,39.8670033 97.8977748,41.7941276 C97.8913441,42.3169447 97.7683567,42.8381541 97.6958503,43.3833179 L99.920556,43.3833179 C99.8462813,42.834778 99.7215254,42.3130863 99.7147731,41.7899476 C99.6901757,39.8967453 99.686478,38.0025784 99.7170239,36.1095368 C99.7255446,35.5780383 99.8774702,35.0489512 99.9633203,34.5214719" id="Fill-27"></path>
        </g>
    </g>
</svg>