<?xml version="1.0" encoding="UTF-8"?>
<svg width="160px" height="70px" viewBox="0 0 160 70" version="1.1" xmlns="http://www.w3.org/2000/svg" xmlns:xlink="http://www.w3.org/1999/xlink">
    <!-- Generator: Sketch 50.2 (55047) - http://www.bohemiancoding.com/sketch -->
    <title>lorna-jane-logobar-svg</title>
    <desc>Created with Sketch.</desc>
    <defs>
        <polygon id="path-1" points="0.368622754 0.446227545 12.3326946 0.446227545 12.3326946 9.29892216 0.368622754 9.29892216"></polygon>
        <polygon id="path-3" points="0.288143713 0.535329341 12.0308982 0.535329341 12.0308982 5.02994012 0.288143713 5.02994012"></polygon>
    </defs>
    <g id="lorna-jane-logobar-svg" stroke="none" stroke-width="1" fill="none" fill-rule="evenodd">
        <g id="Group" transform="translate(20.000000, 21.000000)">
            <g id="Group-3" transform="translate(42.395210, 0.000000)">
                <mask id="mask-2" fill="white">
                    <use xlink:href="#path-1"></use>
                </mask>
                <g id="Clip-2"></g>
                <path d="M1.86682635,8.27640719 C1.97173653,8.01197605 3.97724551,2.86419162 3.97724551,2.86419162 C4.28335329,2.02922156 5.10610778,1.46083832 6.01293413,1.46083832 C6.01293413,1.46083832 10.5815569,1.46083832 10.8560479,1.46083832 C10.7511377,1.7245509 8.75568862,6.87305389 8.75568862,6.87305389 C8.4502994,7.70658683 7.62682635,8.26634731 6.71928144,8.26634731 L6.44479042,8.26634731 C6.44479042,8.26562874 2.65868263,8.27640719 1.86682635,8.27640719 Z M3.03808383,2.38850299 L0.368622754,9.29892216 L6.87808383,9.29892216 C8.12263473,9.29892216 9.25221557,8.51856287 9.68407186,7.35736527 L12.3326946,0.446227545 L5.82323353,0.446227545 C4.58946108,0.436167665 3.4605988,1.22730539 3.03808383,2.38850299 Z" id="Fill-1" fill="#00112C" mask="url(#mask-2)"></path>
            </g>
            <path d="M59.4761677,1.47017964 C58.5686228,1.47017964 57.7566467,2.02850299 57.4397605,2.8742515 C57.4397605,2.8742515 55.4356886,8.02275449 55.3286228,8.28646707 C56.120479,8.28646707 59.908024,8.28646707 59.908024,8.28646707 L60.1832335,8.28646707 C61.0900599,8.28646707 61.9027545,7.72670659 62.2189222,6.89389222 C62.2189222,6.89389222 64.2107784,1.74538922 64.3192814,1.48095808 C64.0433533,1.48095808 59.4761677,1.47017964 59.4761677,1.47017964 Z M65.8067066,0.457005988 L63.1580838,7.36814371 C62.7362874,8.52862275 61.6074251,9.31976048 60.3506587,9.30898204 L53.8304192,9.30898204 L56.4998802,2.39856287 C56.9216766,1.23808383 58.0512575,0.457005988 59.3073054,0.457005988 L65.8067066,0.457005988 Z" id="Fill-4" fill="#00112C"></path>
            <g id="Group-8" fill="#00112C">
                <path d="M75.2917365,1.49173653 C75.1868263,1.75616766 73.1913772,6.9039521 73.1913772,6.9039521 C72.8867066,7.73748503 72.0639521,8.29724551 71.1564072,8.29724551 L70.8833533,8.29724551 C70.8833533,8.29724551 66.5777246,8.29724551 66.3046707,8.29724551 C66.4095808,8.03353293 68.4122156,2.88502994 68.4122156,2.88502994 C68.7176048,2.05077844 69.542515,1.48095808 70.4500599,1.48095808 C70.4493413,1.48095808 75.0179641,1.48095808 75.2917365,1.49173653 Z M70.2783234,0.457005988 C69.0359281,0.457005988 67.9070659,1.23808383 67.4737725,2.39856287 L64.8057485,9.30898204 L71.3245509,9.30898204 C72.5705389,9.30898204 73.6986826,8.52862275 74.131976,7.36814371 L76.7791617,0.457005988 L70.2783234,0.457005988 Z" id="Fill-5"></path>
                <polyline id="Fill-7" points="0 21.2931737 0 12.3794012 2.19520958 12.3794012 2.19520958 19.6268263 9.1897006 19.6268263 9.1897006 21.2931737 0 21.2931737"></polyline>
            </g>
            <path d="M11.428024,14.4905389 C11.428024,13.6469461 11.5868263,13.0864671 11.9130539,12.8011976 C12.24,12.5173653 12.8529341,12.3794012 13.748982,12.3794012 L20.6392814,12.3794012 C21.5353293,12.3794012 22.1482635,12.5173653 22.4752096,12.8011976 C22.8021557,13.0864671 22.9602395,13.6462275 22.9602395,14.4905389 L22.9602395,19.1849102 C22.9602395,20.0184431 22.7928144,20.5782036 22.4658683,20.8620359 C22.1382036,21.1465868 21.5252695,21.2938922 20.64,21.2938922 L13.7497006,21.2938922 C12.8536527,21.2938922 12.2407186,21.1465868 11.9137725,20.8620359 C11.5875449,20.5782036 11.4287425,20.0184431 11.4287425,19.1849102 L11.4287425,14.4905389 L11.428024,14.4905389 Z M13.6009581,19.5743713 L20.7743713,19.5743713 L20.7743713,14.0270659 L13.6009581,14.0270659 L13.6009581,19.5743713 Z" id="Fill-9" fill="#00112C"></path>
            <path d="M25.8617964,21.2931737 L25.8617964,12.3794012 L33.891018,12.3794012 C35.2835928,12.3794012 35.9798802,12.9607186 35.9798802,14.1104192 L35.9798802,16.2201198 C35.9798802,17.3611976 35.2828743,17.9288623 33.891018,17.9288623 L32.6658683,17.9288623 L36.9068263,21.2938922 L33.7839521,21.2938922 L30.0596407,17.9288623 L28.0117365,17.9288623 L28.0117365,21.2938922 L25.8617964,21.2938922 M32.971976,13.9092216 L28.0232335,13.9092216 L28.0232335,16.3882635 L32.971976,16.3882635 C33.6373653,16.3882635 33.9643114,16.1461078 33.9643114,15.6711377 L33.9643114,14.6378443 C33.9643114,14.1528144 33.6265868,13.9092216 32.971976,13.9092216" id="Fill-10" fill="#00112C"></path>
            <polyline id="Fill-11" fill="#00112C" points="39.5762874 21.2931737 39.5762874 12.3794012 41.074491 12.3794012 48.6402395 18.2989222 48.6402395 12.3794012 50.5925749 12.3794012 50.5925749 21.2931737 49.1044311 21.2931737 41.5494611 15.2823952 41.5494611 21.2931737 39.5762874 21.2931737"></polyline>
            <path d="M52.7978443,21.2931737 L58.0943713,12.3794012 L60.1832335,12.3794012 L65.5623952,21.2931737 L63.1171257,21.2931737 L61.9976048,19.3422754 L56.0881437,19.3422754 L54.9693413,21.2931737 L52.7978443,21.2931737 M57.0179641,17.7183234 L61.1108982,17.7183234 L59.0227545,14.0047904 L57.0179641,17.7183234" id="Fill-12" fill="#00112C"></path>
            <path d="M71.8081437,21.2931737 C70.9149701,21.2931737 70.2891018,21.1458683 69.9635928,20.8613174 C69.6373653,20.577485 69.4692216,20.0177246 69.4692216,19.1841916 L69.4692216,17.3281437 L71.6507784,16.9264671 L71.6507784,19.6261078 L75.9147305,19.6261078 L75.9147305,12.3794012 L78.0991617,12.3794012 L78.0991617,19.1849102 C78.0991617,20.0184431 77.9281437,20.5782036 77.6026347,20.8620359 C77.2771257,21.1465868 76.6634731,21.2938922 75.7573653,21.2938922 L71.8081437,21.2938922" id="Fill-13" fill="#00112C"></path>
            <path d="M80.3252695,21.2931737 L85.6189222,12.3794012 L87.708503,12.3794012 L93.0891018,21.2931737 L90.6423952,21.2931737 L89.5250299,19.3422754 L83.6155689,19.3422754 L82.4953293,21.2931737 L80.3252695,21.2931737 M84.5446707,17.7183234 L88.6376048,17.7183234 L86.5501796,14.0047904 L84.5446707,17.7183234" id="Fill-14" fill="#00112C"></path>
            <polyline id="Fill-15" fill="#00112C" points="95.2950898 21.2931737 95.2950898 12.3794012 96.794012 12.3794012 104.369102 18.2989222 104.369102 12.3794012 106.322874 12.3794012 106.322874 21.2931737 104.823952 21.2931737 97.280479 15.2823952 97.280479 21.2931737 95.2950898 21.2931737"></polyline>
            <polyline id="Fill-16" fill="#00112C" points="109.876886 21.2931737 109.876886 12.3794012 119.434491 12.3794012 119.434491 13.9623952 112.060599 13.9623952 112.060599 15.902515 116.36479 15.902515 116.36479 17.4337725 112.060599 17.4337725 112.060599 19.6268263 119.54012 19.6268263 119.54012 21.2931737 109.876886 21.2931737"></polyline>
            <g id="Group-20" transform="translate(25.868263, 23.712575)">
                <mask id="mask-4" fill="white">
                    <use xlink:href="#path-3"></use>
                </mask>
                <g id="Clip-18"></g>
                <path d="M1.91353293,3.35353293 L4.32862275,3.35353293 L3.1257485,1.05269461 L1.91353293,3.35353293 Z M0.288143713,5.01988024 L2.73628743,0.535329341 L3.53820359,0.535329341 L6.02730539,5.01988024 L5.20383234,5.01988024 L4.6354491,3.92407186 L1.60670659,3.92407186 L1.03616766,5.01988024 L0.288143713,5.01988024 Z" id="Fill-17" fill="#00112C" mask="url(#mask-4)"></path>
                <path d="M11.2821557,1.13964072 L8.16934132,1.13964072 L8.16934132,4.39904192 L11.2821557,4.39904192 L11.2821557,3.2788024 L12.0308982,3.43616766 L12.0308982,3.96502994 C12.0308982,4.38826347 11.9568862,4.66131737 11.8088623,4.80862275 C11.6615569,4.95592814 11.3863473,5.03065868 10.9853892,5.03065868 L8.4754491,5.03065868 C8.07377246,5.03065868 7.78922156,4.95592814 7.64191617,4.80862275 C7.49389222,4.66131737 7.41916168,4.38826347 7.41916168,3.97580838 L7.41916168,1.61245509 C7.41916168,1.20287425 7.49389222,0.916167665 7.64191617,0.768862275 C7.78922156,0.618682635 8.06371257,0.544670659 8.4754491,0.544670659 L10.9853892,0.544670659 C11.3863473,0.544670659 11.6716168,0.618682635 11.8088623,0.758083832 C11.9568862,0.905389222 12.0308982,1.1805988 12.0308982,1.60167665 L12.0308982,2.02203593 L11.2821557,2.15856287 L11.2821557,1.13964072" id="Fill-19" fill="#00112C" mask="url(#mask-4)"></path>
            </g>
            <polyline id="Fill-21" fill="#00112C" points="41.6040719 24.862994 41.6040719 28.7324551 40.8546108 28.7324551 40.8546108 24.862994 38.805988 24.862994 38.805988 24.2479042 43.6605988 24.2479042 43.6605988 24.862994 41.6040719 24.862994"></polyline>
            <polygon id="Fill-22" fill="#00112C" points="44.9152096 28.7324551 45.6646707 28.7324551 45.6646707 24.2479042 44.9152096 24.2479042"></polygon>
            <polyline id="Fill-23" fill="#00112C" points="49.5686228 28.7324551 47.1104192 24.2479042 47.9231138 24.2479042 49.9056287 27.9858683 51.7947305 24.2479042 52.5334132 24.2479042 50.1916168 28.7324551 49.5686228 28.7324551"></polyline>
            <polyline id="Fill-24" fill="#00112C" points="53.9899401 28.7324551 53.9899401 24.2479042 58.3049102 24.2479042 58.3049102 24.8522156 54.7279042 24.8522156 54.7279042 26.0953293 56.9108982 26.0953293 56.9108982 26.6874251 54.7279042 26.6874251 54.7279042 28.1223952 58.3365269 28.1223952 58.3365269 28.7324551 53.9899401 28.7324551"></polyline>
            <polyline id="Fill-25" fill="#00112C" points="63.3693413 28.7324551 63.3693413 24.2479042 64.1058683 24.2479042 64.1058683 28.1123353 67.5061078 28.1123353 67.5061078 28.7324551 63.3693413 28.7324551"></polyline>
            <polygon id="Fill-26" fill="#00112C" points="69.0359281 28.7324551 69.7846707 28.7324551 69.7846707 24.2479042 69.0359281 24.2479042"></polygon>
            <polyline id="Fill-27" fill="#00112C" points="73.6771257 28.7324551 71.2304192 24.2479042 72.0423952 24.2479042 74.0162874 27.9858683 75.9147305 24.2479042 76.6526946 24.2479042 74.3008383 28.7324551 73.6771257 28.7324551"></polyline>
            <polygon id="Fill-28" fill="#00112C" points="78.0991617 28.7324551 78.8371257 28.7324551 78.8371257 24.2479042 78.0991617 24.2479042"></polygon>
            <path d="M81.1796407,28.7324551 L81.1796407,24.2479042 L81.6445509,24.2479042 L84.9988024,27.2457485 C85.1568862,27.3916168 85.3358084,27.5841916 85.5032335,27.8155689 C85.4615569,27.5417964 85.4292216,27.171018 85.4292216,26.708982 L85.4292216,24.2479042 L86.1154491,24.2479042 L86.1154491,28.7324551 L85.6929341,28.7324551 L82.2431138,25.6095808 C82.1166467,25.4938922 82.0440719,25.4306587 82.0217964,25.4098204 C81.9276647,25.3149701 81.8543713,25.2201198 81.7911377,25.1044311 C81.8335329,25.3674251 81.8435928,25.6936527 81.8435928,26.0845509 L81.8435928,28.7216766 L81.1782036,28.7216766" id="Fill-29" fill="#00112C"></path>
            <path d="M92.6486228,24.8522156 L89.1334132,24.8522156 L89.1334132,28.1116168 L92.6486228,28.1116168 L92.6486228,26.7923353 L90.8349701,26.7923353 L90.8349701,26.2210778 L93.3952096,26.2210778 L93.3952096,27.6776048 C93.3952096,28.0900599 93.3211976,28.3738922 93.1738922,28.5104192 C93.0273054,28.6577246 92.7535329,28.7317365 92.3432335,28.7317365 L89.4416766,28.7317365 C89.0392814,28.7317365 88.7640719,28.6577246 88.605988,28.5104192 C88.4594012,28.3638323 88.3846707,28.0900599 88.3846707,27.6776048 L88.3846707,25.3142515 C88.3846707,24.9046707 88.4594012,24.6179641 88.605988,24.4706587 C88.7532934,24.320479 89.0292216,24.2464671 89.4416766,24.2464671 L92.3432335,24.2464671 C92.7326946,24.2464671 93.0064671,24.320479 93.1645509,24.4591617 C93.3219162,24.5964072 93.3952096,24.8622754 93.3952096,25.251018 L93.3952096,25.3667066 L92.6486228,25.5132934 L92.6486228,24.8522156" id="Fill-30" fill="#00112C"></path>
        </g>
    </g>
</svg>