<?xml version="1.0" encoding="utf-8"?>
<!-- Generator: Adobe Illustrator 22.1.0, SVG Export Plug-In . SVG Version: 6.00 Build 0)  -->
<svg version="1.1" id="Layer_1" xmlns="http://www.w3.org/2000/svg" xmlns:xlink="http://www.w3.org/1999/xlink" x="0px" y="0px"
	 viewBox="0 0 171.7 39" style="enable-background:new 0 0 171.7 39;" xml:space="preserve">
<style type="text/css">
	.st0{fill:#FFFFFF;}
</style>
<path class="st0" d="M10.9,0h0.7c0.7,0,1.4,0.1,2.1,0.2c1.2,0.1,2.3,0.5,3.4,0.9c1,0.4,1.9,0.8,2.8,1.3c0,2.8,0,5.7,0,8.5
	c-0.5,0-1,0-1.5,0c-0.1-0.5-0.1-1-0.2-1.6c-0.2-1-0.6-1.9-1-2.7C16.5,5.3,15.7,4,14.6,3c-1.5-1.4-3.8-1.8-5.7-0.9
	C7.9,2.6,7.2,3.7,7,4.8c0,0.5-0.1,1.1,0.1,1.6c0.2,0.7,0.5,1.4,1,1.9C8.5,8.8,9,9.1,9.5,9.5c1.4,0.9,3,1.3,4.5,1.7
	c1.1,0.3,2.2,0.7,3.3,1.3c1.2,0.6,2.4,1.3,3.3,2.3c0.6,0.6,1,1.3,1.3,2c0.9,1.8,1.1,3.9,0.7,5.9c-0.3,1.7-1.2,3.3-2.3,4.6
	c-1.4,1.7-3.5,2.8-5.6,3.3c-3.3,0.9-6.8,0.6-10.1-0.3c-1.5-0.4-2.9-0.9-4.4-1.4c0-0.2,0-0.3,0-0.5c0-3.5,0-6.9,0-10.4
	c0.5,0,1.1,0,1.6,0c0.5,2.6,1.4,5.2,2.9,7.4c1,1.5,2.4,2.9,4.1,3.5c1.2,0.4,2.5,0.6,3.7,0.1c0.7-0.3,1.3-0.8,1.8-1.4
	c0.4-0.4,0.6-1,0.8-1.5c0.1-1-0.1-2-0.6-2.8c-0.4-0.7-1.1-1.3-1.8-1.7c-2-1.2-4.3-2-6.4-3c-1.8-0.9-3.7-2.1-4.9-3.8
	c-0.8-1.2-1.3-2.5-1.4-4V10c0.1-1.6,0.5-3.1,1.3-4.5c0.6-1.1,1.5-2.1,2.5-2.9S6,1.1,7.2,0.7C8.5,0.2,9.7,0.1,10.9,0L10.9,0z"/>
<path class="st0" d="M34.7,0.2C34.9,0.1,35,0.1,35.2,0c0,4.3,0,8.6,0,12.9c0.7-0.8,1.5-1.6,2.5-2.2c1.1-0.7,2.3-1.2,3.6-1.3
	c0.7,0,1.4-0.1,2.2,0.1c1.4,0.2,2.9,0.7,3.9,1.9c0.7,0.8,0.9,1.8,1.1,2.8c0,0.2,0,0.3,0,0.5c0.1,1.3,0.1,2.7,0.1,4c0,2.3,0,4.6,0,7
	c0,1,0,2,0.3,2.9c0.2,0.5,0.6,0.9,1.1,1.1c0.4,0.2,0.8,0.2,1.2,0.2c0,0.5,0,0.9,0,1.4c-3.7,0-7.3,0-11,0c0-4.3,0-8.7,0-13
	c0-0.9,0-1.8-0.1-2.6c0-0.2,0-0.4-0.1-0.6c0-0.1,0-0.2-0.1-0.3c-0.2-0.5-0.5-1.1-1-1.4s-1.2-0.2-1.7,0c-0.7,0.3-1.2,1.1-1.4,1.8
	c-0.2,0.4-0.3,0.9-0.3,1.3c-0.1,0.6-0.1,1.2-0.1,1.8c0,2.5,0,4.9,0,7.4c0,0.7-0.1,1.4,0,2.2c0.1,0.5,0.3,1.1,0.7,1.4
	s0.8,0.5,1.2,0.6c0,0.5,0,0.9,0,1.4c-4.2,0-8.4,0-12.6,0c0-0.5,0-0.9,0-1.4c0.4,0,0.8-0.1,1.1-0.2c0.7-0.4,1.2-1.2,1.2-2
	c0-5.8,0-11.5,0-17.3c0-0.9,0-1.9-0.4-2.8c-0.4-1-1.3-1.8-2.3-2.2c-0.3-0.1-0.6-0.1-0.9-0.2c0.3-0.1,0.5-0.2,0.8-0.3
	c0.7-0.3,1.4-0.6,2.2-1c1.2-0.5,2.5-1.1,3.7-1.6c0.7-0.3,1.4-0.6,2.1-0.9C32.6,1.2,33,1,33.5,0.8C33.9,0.6,34.3,0.4,34.7,0.2
	L34.7,0.2z"/>
<path class="st0" d="M89,18.6c1.8-3.3,3.6-6.6,5.4-9.8c0.1,0.2,0.2,0.3,0.3,0.5c0.2,0.3,0.3,0.6,0.5,0.9s0.3,0.6,0.5,0.9
	s0.4,0.6,0.5,1c0.2,0.3,0.3,0.6,0.5,0.9c1.3,2.4,2.6,4.7,3.9,7.1c0.1-0.2,0.2-0.4,0.2-0.6c0.8-1.7,1.5-3.4,2.3-5
	c0.2-0.3,0.3-0.7,0.4-1c0.1-0.5,0.1-1.1,0-1.6c-0.1-0.4-0.4-0.7-0.8-0.8c-0.4-0.2-0.9-0.1-1.4-0.1c-0.1,0-0.2,0-0.2-0.1
	c0-0.4,0-0.9,0-1.3c2.7,0,5.3,0,8,0c0,0.5,0,0.9,0,1.4c-0.3,0-0.5,0-0.8,0c-0.6-0.1-1.1,0.4-1.5,0.8c-1.1,1.3-1.7,2.9-2.4,4.4
	c-0.2,0.4-0.3,0.7-0.5,1.1c-0.3,0.7-0.7,1.4-1,2.2c-0.2,0.4-0.3,0.7-0.5,1.1s-0.4,0.8-0.5,1.1c-0.2,0.3-0.3,0.7-0.5,1
	c-0.2,0.4-0.4,0.8-0.6,1.2c-0.2,0.4-0.3,0.7-0.5,1.1s-0.4,0.8-0.5,1.1c-0.2,0.3-0.3,0.7-0.5,1c-0.2,0.4-0.4,0.8-0.6,1.2
	c-0.2,0.4-0.3,0.7-0.5,1.1s-0.4,0.8-0.5,1.1c-0.1,0.2-0.2,0.3-0.2,0.5c-0.6-1.1-1.2-2.1-1.8-3.2c-1.5-2.7-3-5.3-4.5-8
	c-0.2,0.4-0.4,0.7-0.6,1.1c-0.5,1-1.1,1.9-1.6,2.9c-0.1,0.2-0.3,0.5-0.4,0.7c-0.4,0.7-0.7,1.3-1.1,2c-0.8,1.4-1.6,2.9-2.4,4.3H85
	c-1.7-3.5-3.5-7-5.2-10.5c-0.2-0.3-0.3-0.6-0.5-1c-0.3-0.7-0.7-1.4-1-2.1c-0.2-0.3-0.3-0.7-0.5-1c-0.2-0.4-0.4-0.7-0.5-1.1
	c-0.2-0.3-0.3-0.7-0.5-1c-0.5-1-0.9-2-1.7-2.8c-0.5-0.4-1.1-0.7-1.7-0.7c-0.2,0-0.3,0-0.5,0c0-0.5,0-0.9,0-1.4c4.9,0,9.7,0,14.6,0
	c0,0.5,0,0.9,0,1.4c-0.2,0-0.4,0.1-0.6,0c-0.5,0-1,0.1-1.4,0.5c-0.3,0.3-0.4,0.9-0.3,1.3s0.3,0.7,0.4,1c0.4,0.9,0.8,1.7,1.3,2.5
	c0.6,1.1,1.2,2.1,1.7,3.2h0.1C88.7,19.2,88.9,18.9,89,18.6L89,18.6z"/>
<path class="st0" d="M74.6,19.1c0-0.3-0.1-0.5-0.1-0.7c-0.1-0.5-0.2-1.1-0.4-1.6c-0.1,0-0.1-0.1-0.1-0.2c-0.1-0.4-0.3-0.7-0.5-1.1
	c-0.8-1.5-1.9-2.8-3.3-3.8c-1.2-0.9-2.6-1.5-4-1.9c-1.9-0.5-3.9-0.4-5.8,0c-0.1,0-0.2,0.1-0.2,0c-0.5,0.1-1,0.3-1.5,0.5
	c-1.8,0.7-3.4,1.9-4.6,3.4C53,15,52.3,16.6,52,18.3c-0.2,1-0.2,2-0.1,3c0.1,1.1,0.4,2.3,0.9,3.3c0.7,1.5,1.7,2.8,2.9,3.8
	c1,0.9,2.2,1.6,3.5,2.1c0.6,0.2,1.1,0.4,1.7,0.5c0.1,0.1,0.3,0.1,0.4,0.1c2,0.3,4,0.2,5.8-0.5c0.4-0.2,0.9-0.4,1.3-0.6
	c2.1-1.2,4-3,5.1-5.2c0.5-1,0.9-2.1,1-3.2c0.1-0.2,0.1-0.5,0.1-0.7C74.7,20.3,74.7,19.7,74.6,19.1z M65.9,18.9c0,1.1,0,2.1,0,3.2
	c0,0.3,0,0.6,0,0.9c0,1.1-0.1,2.1-0.2,3.2c0,0.3,0,0.6-0.1,0.9c-0.3,0.8-1,1.4-1.9,1.6c-0.2,0-0.4,0-0.7,0c-0.8-0.1-1.5-0.6-1.8-1.4
	c-0.2-0.4-0.2-1-0.3-1.4c0-0.3,0-0.7-0.1-1c0-0.4,0-0.8-0.1-1.2c-0.1-0.6,0-1.1-0.1-1.7c0-1,0-2.1,0-3.1c0.1-0.6,0-1.1,0.1-1.7
	c0-0.4,0-0.8,0.1-1.1c0.1-0.3,0-0.7,0.1-1c0.1-0.5,0-1,0.2-1.4c0.1-0.7,0.5-1.1,1-1.3c0.7-0.4,1.6-0.4,2.3,0c0.6,0.4,1.1,1,1.2,1.8
	c0.1,1.3,0.2,2.6,0.3,3.8C66,18.3,65.9,18.6,65.9,18.9z"/>
<path class="st0" d="M160.1,16.9c-0.1,0-0.1-0.1-0.1-0.2c-0.5-1.3-1.3-2.6-2.3-3.6c-1.1-1.1-2.4-2.1-3.8-2.7c-2.3-1-5-1.2-7.5-0.6
	c-0.1,0.1-0.2,0.1-0.3,0.2c-0.8,0.3-1.6,0.6-2.4,1c-2.2,1.2-4.2,3-5.1,5.4c0,0.1-0.1,0.2-0.1,0.3c-0.2,0.5-0.3,0.9-0.4,1.4
	c0,0.1-0.1,0.3-0.1,0.5c-0.1,1-0.1,2.1,0,3.1c0.1,0.2,0.1,0.3,0.1,0.5c0.1,0.6,0.3,1.2,0.5,1.8c1,2.7,3.2,4.9,5.7,6.2
	c1,0.5,2.1,0.8,3.2,1c1.1,0.2,2.2,0.2,3.3,0.1c0.2,0,0.4-0.1,0.6-0.1c0.1-0.1,0.2-0.1,0.3-0.1c0.5-0.1,1.1-0.3,1.6-0.5
	c1.4-0.5,2.6-1.3,3.6-2.2c1.1-1.1,2.1-2.3,2.8-3.8c0.2-0.4,0.4-0.9,0.5-1.3c0.3-1.1,0.4-2.2,0.4-3.3C160.6,19,160.4,17.9,160.1,16.9
	z M151.8,23.7c0,1-0.1,1.9-0.2,2.9c0,0.2-0.1,0.3-0.1,0.5c-0.3,0.8-1,1.4-1.8,1.5c-0.3,0-0.5,0-0.8,0c-0.1,0-0.2-0.1-0.3-0.1
	c-0.6-0.2-1.2-0.7-1.5-1.3c-0.3-0.6-0.2-1.3-0.3-1.9c0-0.3,0-0.7-0.1-1c0-0.4,0-0.9-0.1-1.3c-0.1-2.1-0.1-4.3,0-6.4
	c0.1-0.4,0-0.8,0.1-1.2c0.2-0.6,0.1-1.2,0.3-1.7c0.3-0.9,1.3-1.6,2.3-1.6s1.9,0.7,2.2,1.6c0.1,0.7,0.1,1.3,0.2,2
	c0.1,2,0.2,4.1,0.2,6.1C151.8,22.4,151.9,23.1,151.8,23.7z"/>
<path class="st0" d="M134.4,15.2c-0.6-1.3-1.4-2.5-2.4-3.5c-1.1-1.1-2.4-1.8-3.9-2.1c-1.5-0.3-3.1-0.2-4.6,0.3
	c-1.1,0.4-2.1,1.3-2.9,2.1c0-1.2,0-2.4,0-3.6c-4.1,1.8-8.2,3.6-12.3,5.3c0.7,0.1,1.3,0.2,2.1,0.5c1.2,0.6,2,1.9,2,3.3
	c0,0.4,0,0.8,0,1.2c0,2.3,0,4.7,0,7c0,3.2,0,6.4,0,9.6c0,0.8-0.5,1.7-1.3,2c-0.5,0.2-1.1,0.2-1.7,0.2c0,0.5,0,0.9,0,1.4H124
	c0-0.5,0-0.9,0-1.4c-0.7,0-1.5,0-2.1-0.5c-0.7-0.5-0.9-1.4-0.9-2.2c-0.1-1.4,0-2.9,0-4.3c0.5,0.3,1.1,0.5,1.7,0.6
	c2,0.3,4.1,0.1,6.1-0.5c1.3-0.4,2.5-1,3.5-1.9c1-0.9,1.8-2.1,2.3-3.4c0.6-1.6,0.8-3.3,0.8-5C135.3,18.6,135.1,16.8,134.4,15.2z
	 M126.7,26.1c0,0.2-0.1,0.4-0.1,0.6c-0.1,1-1,1.8-1.9,1.9c-0.2,0-0.4,0-0.6,0c-0.1,0-0.3-0.1-0.4-0.1c-0.7-0.2-1.2-0.8-1.5-1.4
	c-0.1-0.3-0.1-0.6-0.2-0.9c-0.2-2.1-0.3-4.3-0.3-6.4c0-1.4,0.1-2.7,0.2-4.1c0.1-0.3,0-0.7,0.1-1s0-0.6,0.1-0.9
	c0.3-0.8,0.9-1.4,1.7-1.6c1-0.3,2.2,0.2,2.7,1.2c0.2,0.3,0.2,0.6,0.2,0.8C127.2,18.2,127.2,22.2,126.7,26.1z"/>
<path class="st0" d="M165.5,22c1.4-0.3,3.1-0.2,4.3,0.7c0.8,0.6,1.4,1.5,1.7,2.4c0.2,1,0.2,2,0,3c-0.4,1.1-1.1,2.1-2.1,2.6
	c-0.5,0.3-1,0.4-1.5,0.5c-0.7,0.1-1.3,0.1-2,0c-0.6-0.1-1.3-0.4-1.8-0.8c-0.6-0.4-1.1-1.1-1.4-1.7c-0.6-1.4-0.6-3,0-4.4
	c0.3-0.5,0.6-1.1,1.1-1.5C164.3,22.4,164.9,22.1,165.5,22L165.5,22z"/>
</svg>
