<?xml version="1.0" encoding="utf-8"?>
<!-- Generator: Adobe Illustrator 22.1.0, SVG Export Plug-In . SVG Version: 6.00 Build 0)  -->
<svg version="1.1" id="Layer_1" xmlns="http://www.w3.org/2000/svg" xmlns:xlink="http://www.w3.org/1999/xlink" x="0px" y="0px"
	 viewBox="0 0 692.7 178" style="enable-background:new 0 0 692.7 178;" xml:space="preserve">
<style type="text/css">
	.st0{fill:#FFFFFF;}
</style>
<g>
	<path class="st0" d="M386.1,136.6c-19,27.3-44.6,41.7-77.4,41.4c-24.7-0.3-46-10-63-28.1c-33.9-36-31.4-93.4,4.6-126.5
		c37-34,102-32.8,135.8,17.8c20.5-29.3,48.5-43.6,84.1-40.8c22.9,1.8,42.6,11.9,57.7,29.4c32.7,37.8,30.1,91.2-6.4,124.8
		c-20.1,18.5-44.4,26.3-71.8,22.5C422.6,173.4,401.9,159.3,386.1,136.6z M372.6,89.2c0.1-34.4-27.7-62.3-62.1-62.4
		c-34.1-0.1-61.9,28-61.9,62.6c0,33.6,28,61.5,61.9,61.6C344.5,151.2,372.5,123.4,372.6,89.2z M523.6,89.4
		c0.1-34.1-27.6-62.3-61-62.4c-34.5-0.2-62.7,26.6-63,61.5c-0.3,35.7,28.1,62.5,61.8,62.6C495.6,151.1,523.5,123.3,523.6,89.4z"/>
	<path class="st0" d="M155,0.4c14.3-0.5,26.4,11.8,26.4,26.5c0.1,38.5,0,77,0,115.4c0,10.2-1.1,8.7,8.7,8.8c9.5,0.1,19-0.1,28.5,0.1
		c14,0.3,26.1,12.9,25.4,26.5c-29.5,0-59.1,0-89.1,0C155,118.7,155,59.7,155,0.4z"/>
	<path class="st0" d="M685.8,1.4c9.6,9.9,9.5,26.2-1.6,37.6c-14.2,14.5-28.7,28.8-43,43.2c-8.1,8.2-7.6,5.8-0.1,13.4
		c14.4,14.6,29,28.9,43.4,43.5c10.7,10.8,10.8,27.4,0.5,37.9c-29.3-29.3-58.6-58.6-87.6-87.6C626.7,60.3,656.2,30.8,685.8,1.4z"/>
	<path class="st0" d="M121.9,177.4c-29.5-29.6-58.8-58.9-87.9-88c29.4-29.2,58.9-58.6,88.4-87.9c9.8,10.1,9.5,26.6-1.5,37.8
		c-15.1,15.3-30.3,30.5-45.6,45.5c-3.2,3.2-3.5,5.1-0.1,8.4c14.9,14.5,29.6,29.3,44.2,44.1C132,149.8,132.9,164.2,121.9,177.4z"/>
	<path class="st0" d="M0,0.4c14.2-0.7,27.1,11.3,27.2,25.9c0.3,41.8,0.3,83.6,0,125.4c-0.1,14.4-13.1,26.5-27.2,26
		C0,118.7,0,59.7,0,0.4z"/>
	<path class="st0" d="M563.8,177.5c0-58.9,0-117.8,0-177.5c2.4,0.4,4.6,0.5,6.7,1.1c12.2,3.6,19.9,13.7,19.9,26.2
		c0.1,41.1,0.1,82.3,0,123.4C590.3,165.7,577.6,178.5,563.8,177.5z"/>
</g>
</svg>
