<?xml version="1.0" encoding="UTF-8"?>
<svg width="40px" height="40px" viewBox="0 0 40 40" version="1.1" xmlns="http://www.w3.org/2000/svg" xmlns:xlink="http://www.w3.org/1999/xlink">
    <!-- Generator: Sketch 50.2 (55047) - http://www.bohemiancoding.com/sketch -->
    <title>Page 1</title>
    <desc>Created with Sketch.</desc>
    <defs></defs>
    <g id="Page-1" stroke="none" stroke-width="1" fill="none" fill-rule="evenodd">
        <g id="Home-2-Copy-13" transform="translate(-623.000000, -2132.000000)" fill="#09152C">
            <g id="Page-1" transform="translate(623.000000, 2132.000000)">
                <path d="M20,0 C8.972,0 0,8.972 0,20 C0,31.028 8.972,40 20,40 C31.028,40 40,31.028 40,20 C40,8.972 31.028,0 20,0 M18.229,37.91 C18.183,37.402 17.769,37 17.248,37 C16.83,37 16.475,37.257 16.324,37.62 C8.156,35.918 2,28.665 2,20 C2,10.075 10.075,2 20,2 C23.831,2 27.379,3.212 30.301,5.261 C30.418,5.684 30.788,6 31.248,6 C31.26,6 31.269,5.994 31.28,5.994 C31.758,6.379 32.219,6.785 32.654,7.217 C32.414,7.399 32.248,7.675 32.248,8 C32.248,8.552 32.695,9 33.248,9 C33.537,9 33.792,8.874 33.975,8.678 C34.334,9.12 34.672,9.578 34.988,10.052 C34.565,10.169 34.248,10.54 34.248,11 C34.248,11.552 34.695,12 35.248,12 C35.525,12 35.776,11.886 35.958,11.704 C36.214,12.194 36.45,12.696 36.661,13.212 C36.417,13.395 36.248,13.672 36.248,14 C36.248,14.552 36.695,15 37.248,15 C37.259,15 37.267,14.995 37.277,14.994 C37.677,16.372 37.908,17.816 37.965,19.308 C37.783,19.119 37.53,19 37.248,19 C36.695,19 36.248,19.448 36.248,20 C36.248,20.552 36.695,21 37.248,21 C37.53,21 37.783,20.881 37.965,20.692 C37.908,22.184 37.677,23.629 37.277,25.006 C37.267,25.006 37.259,25 37.248,25 C36.695,25 36.248,25.447 36.248,26 C36.248,26.328 36.416,26.605 36.661,26.788 C36.45,27.304 36.214,27.806 35.957,28.297 C35.776,28.113 35.525,28 35.248,28 C34.695,28 34.248,28.447 34.248,29 C34.248,29.46 34.565,29.831 34.988,29.947 C34.672,30.422 34.333,30.881 33.975,31.322 C33.792,31.126 33.537,31 33.248,31 C32.695,31 32.248,31.447 32.248,32 C32.248,32.325 32.413,32.601 32.654,32.783 C32.218,33.215 31.758,33.621 31.28,34.007 C31.269,34.006 31.26,34 31.248,34 C30.788,34 30.418,34.316 30.301,34.739 C28.883,35.733 27.317,36.526 25.642,37.081 C25.521,37.029 25.388,37 25.248,37 C24.917,37 24.638,37.171 24.456,37.419 C23.726,37.606 22.98,37.754 22.218,37.849 C22.142,37.371 21.747,37 21.248,37 C20.7,37 20.258,37.441 20.251,37.987 C20.166,37.988 20.085,38 20,38 C19.402,38 18.813,37.968 18.229,37.91" id="Fill-1"></path>
                <path d="M27,6 C27.553,6 28,5.552 28,5 C28,4.448 27.553,4 27,4 C26.447,4 26,4.448 26,5 C26,5.552 26.447,6 27,6" id="Fill-3"></path>
                <path d="M19,6 C19.553,6 20,5.552 20,5 C20,4.448 19.553,4 19,4 C18.447,4 18,4.448 18,5 C18,5.552 18.447,6 19,6" id="Fill-5"></path>
                <path d="M25,9 C25.553,9 26,8.552 26,8 C26,7.448 25.553,7 25,7 C24.447,7 24,7.448 24,8 C24,8.552 24.447,9 25,9" id="Fill-7"></path>
                <path d="M21,9 C21.553,9 22,8.552 22,8 C22,7.448 21.553,7 21,7 C20.447,7 20,7.448 20,8 C20,8.552 20.447,9 21,9" id="Fill-9"></path>
                <path d="M17,9 C17.553,9 18,8.552 18,8 C18,7.448 17.553,7 17,7 C16.447,7 16,7.448 16,8 C16,8.552 16.447,9 17,9" id="Fill-11"></path>
                <path d="M29,9 C29.553,9 30,8.552 30,8 C30,7.448 29.553,7 29,7 C28.447,7 28,7.448 28,8 C28,8.552 28.447,9 29,9" id="Fill-13"></path>
                <path d="M31,12 C31.553,12 32,11.552 32,11 C32,10.448 31.553,10 31,10 C30.447,10 30,10.448 30,11 C30,11.552 30.447,12 31,12" id="Fill-15"></path>
                <path d="M27,10 C26.447,10 26,10.448 26,11 C26,11.552 26.447,12 27,12 C27.553,12 28,11.552 28,11 C28,10.448 27.553,10 27,10" id="Fill-17"></path>
                <path d="M23,12 C23.553,12 24,11.552 24,11 C24,10.448 23.553,10 23,10 C22.447,10 22,10.448 22,11 C22,11.552 22.447,12 23,12" id="Fill-19"></path>
                <path d="M21,13 C20.447,13 20,13.448 20,14 C20,14.552 20.447,15 21,15 C21.553,15 22,14.552 22,14 C22,13.448 21.553,13 21,13" id="Fill-21"></path>
                <path d="M17,13 C16.447,13 16,13.448 16,14 C16,14.552 16.447,15 17,15 C17.553,15 18,14.552 18,14 C18,13.448 17.553,13 17,13" id="Fill-23"></path>
                <path d="M25,13 C24.447,13 24,13.448 24,14 C24,14.552 24.447,15 25,15 C25.553,15 26,14.552 26,14 C26,13.448 25.553,13 25,13" id="Fill-25"></path>
                <path d="M29,13 C28.447,13 28,13.448 28,14 C28,14.552 28.447,15 29,15 C29.553,15 30,14.552 30,14 C30,13.448 29.553,13 29,13" id="Fill-27"></path>
                <path d="M33,15 C33.553,15 34,14.552 34,14 C34,13.448 33.553,13 33,13 C32.447,13 32,13.448 32,14 C32,14.552 32.447,15 33,15" id="Fill-29"></path>
                <path d="M21,21 C21.553,21 22,20.552 22,20 C22,19.448 21.553,19 21,19 C20.447,19 20,19.448 20,20 C20,20.552 20.447,21 21,21" id="Fill-31"></path>
                <path d="M17,21 C17.553,21 18,20.552 18,20 C18,19.448 17.553,19 17,19 C16.447,19 16,19.448 16,20 C16,20.552 16.447,21 17,21" id="Fill-33"></path>
                <path d="M25,21 C25.553,21 26,20.552 26,20 C26,19.448 25.553,19 25,19 C24.447,19 24,19.448 24,20 C24,20.552 24.447,21 25,21" id="Fill-35"></path>
                <path d="M25,27 C25.553,27 26,26.553 26,26 C26,25.447 25.553,25 25,25 C24.447,25 24,25.447 24,26 C24,26.553 24.447,27 25,27" id="Fill-37"></path>
                <path d="M29,27 C29.553,27 30,26.553 30,26 C30,25.447 29.553,25 29,25 C28.447,25 28,25.447 28,26 C28,26.553 28.447,27 29,27" id="Fill-39"></path>
                <path d="M29,19 C28.447,19 28,19.448 28,20 C28,20.552 28.447,21 29,21 C29.553,21 30,20.552 30,20 C30,19.448 29.553,19 29,19" id="Fill-41"></path>
                <path d="M33,21 C33.553,21 34,20.552 34,20 C34,19.448 33.553,19 33,19 C32.447,19 32,19.448 32,20 C32,20.552 32.447,21 33,21" id="Fill-43"></path>
                <path d="M33,25 C32.447,25 32,25.447 32,26 C32,26.553 32.447,27 33,27 C33.553,27 34,26.553 34,26 C34,25.447 33.553,25 33,25" id="Fill-45"></path>
                <path d="M19,10 C18.447,10 18,10.448 18,11 C18,11.552 18.447,12 19,12 C19.553,12 20,11.552 20,11 C20,10.448 19.553,10 19,10" id="Fill-47"></path>
                <path d="M15,12 C15.553,12 16,11.552 16,11 C16,10.448 15.553,10 15,10 C14.447,10 14,10.448 14,11 C14,11.552 14.447,12 15,12" id="Fill-49"></path>
                <path d="M11,12 C11.553,12 12,11.552 12,11 C12,10.448 11.553,10 11,10 C10.447,10 10,10.448 10,11 C10,11.552 10.447,12 11,12" id="Fill-51"></path>
                <path d="M7,10 C6.447,10 6,10.448 6,11 C6,11.552 6.447,12 7,12 C7.553,12 8,11.552 8,11 C8,10.448 7.553,10 7,10" id="Fill-53"></path>
                <path d="M9,13 C8.447,13 8,13.448 8,14 C8,14.552 8.447,15 9,15 C9.553,15 10,14.552 10,14 C10,13.448 9.553,13 9,13" id="Fill-55"></path>
                <path d="M19,18 C19.553,18 20,17.552 20,17 C20,16.448 19.553,16 19,16 C18.447,16 18,16.448 18,17 C18,17.552 18.447,18 19,18" id="Fill-57"></path>
                <path d="M15,18 C15.553,18 16,17.552 16,17 C16,16.448 15.553,16 15,16 C14.447,16 14,16.448 14,17 C14,17.552 14.447,18 15,18" id="Fill-59"></path>
                <path d="M23,16 C22.447,16 22,16.448 22,17 C22,17.552 22.447,18 23,18 C23.553,18 24,17.552 24,17 C24,16.448 23.553,16 23,16" id="Fill-61"></path>
                <path d="M27,18 C27.553,18 28,17.552 28,17 C28,16.448 27.553,16 27,16 C26.447,16 26,16.448 26,17 C26,17.552 26.447,18 27,18" id="Fill-63"></path>
                <path d="M31,16 C30.447,16 30,16.448 30,17 C30,17.552 30.447,18 31,18 C31.553,18 32,17.552 32,17 C32,16.448 31.553,16 31,16" id="Fill-65"></path>
                <path d="M35,18 C35.553,18 36,17.552 36,17 C36,16.448 35.553,16 35,16 C34.447,16 34,16.448 34,17 C34,17.552 34.447,18 35,18" id="Fill-67"></path>
                <path d="M35,22 C34.447,22 34,22.447 34,23 C34,23.553 34.447,24 35,24 C35.553,24 36,23.553 36,23 C36,22.447 35.553,22 35,22" id="Fill-69"></path>
                <path d="M31,24 C31.553,24 32,23.553 32,23 C32,22.447 31.553,22 31,22 C30.447,22 30,22.447 30,23 C30,23.553 30.447,24 31,24" id="Fill-71"></path>
                <path d="M27,22 C26.447,22 26,22.447 26,23 C26,23.553 26.447,24 27,24 C27.553,24 28,23.553 28,23 C28,22.447 27.553,22 27,22" id="Fill-73"></path>
                <path d="M23,22 C22.447,22 22,22.447 22,23 C22,23.553 22.447,24 23,24 C23.553,24 24,23.553 24,23 C24,22.447 23.553,22 23,22" id="Fill-75"></path>
                <path d="M31,28 C30.447,28 30,28.447 30,29 C30,29.553 30.447,30 31,30 C31.553,30 32,29.553 32,29 C32,28.447 31.553,28 31,28" id="Fill-77"></path>
                <path d="M27,30 C27.553,30 28,29.553 28,29 C28,28.447 27.553,28 27,28 C26.447,28 26,28.447 26,29 C26,29.553 26.447,30 27,30" id="Fill-79"></path>
                <path d="M23,30 C23.553,30 24,29.553 24,29 C24,28.447 23.553,28 23,28 C22.447,28 22,28.447 22,29 C22,29.553 22.447,30 23,30" id="Fill-81"></path>
                <path d="M19,30 C19.553,30 20,29.553 20,29 C20,28.447 19.553,28 19,28 C18.447,28 18,28.447 18,29 C18,29.553 18.447,30 19,30" id="Fill-83"></path>
                <path d="M15,28 C14.447,28 14,28.447 14,29 C14,29.553 14.447,30 15,30 C15.553,30 16,29.553 16,29 C16,28.447 15.553,28 15,28" id="Fill-85"></path>
                <path d="M11,28 C10.447,28 10,28.447 10,29 C10,29.553 10.447,30 11,30 C11.553,30 12,29.553 12,29 C12,28.447 11.553,28 11,28" id="Fill-87"></path>
                <path d="M21,27 C21.553,27 22,26.553 22,26 C22,25.447 21.553,25 21,25 C20.447,25 20,25.447 20,26 C20,26.553 20.447,27 21,27" id="Fill-89"></path>
                <path d="M17,27 C17.553,27 18,26.553 18,26 C18,25.447 17.553,25 17,25 C16.447,25 16,25.447 16,26 C16,26.553 16.447,27 17,27" id="Fill-91"></path>
                <path d="M17,31 C16.447,31 16,31.447 16,32 C16,32.553 16.447,33 17,33 C17.553,33 18,32.553 18,32 C18,31.447 17.553,31 17,31" id="Fill-93"></path>
                <path d="M13,27 C13.553,27 14,26.553 14,26 C14,25.447 13.553,25 13,25 C12.447,25 12,25.447 12,26 C12,26.553 12.447,27 13,27" id="Fill-95"></path>
                <path d="M13,31 C12.447,31 12,31.447 12,32 C12,32.553 12.447,33 13,33 C13.553,33 14,32.553 14,32 C14,31.447 13.553,31 13,31" id="Fill-97"></path>
                <path d="M25,31 C24.447,31 24,31.447 24,32 C24,32.553 24.447,33 25,33 C25.553,33 26,32.553 26,32 C26,31.447 25.553,31 25,31" id="Fill-99"></path>
                <path d="M21,31 C20.447,31 20,31.447 20,32 C20,32.553 20.447,33 21,33 C21.553,33 22,32.553 22,32 C22,31.447 21.553,31 21,31" id="Fill-101"></path>
                <path d="M29,31 C28.447,31 28,31.447 28,32 C28,32.553 28.447,33 29,33 C29.553,33 30,32.553 30,32 C30,31.447 29.553,31 29,31" id="Fill-103"></path>
                <path d="M15,34 C14.447,34 14,34.447 14,35 C14,35.553 14.447,36 15,36 C15.553,36 16,35.553 16,35 C16,34.447 15.553,34 15,34" id="Fill-105"></path>
                <path d="M23,34 C22.447,34 22,34.447 22,35 C22,35.553 22.447,36 23,36 C23.553,36 24,35.553 24,35 C24,34.447 23.553,34 23,34" id="Fill-107"></path>
                <path d="M19,34 C18.447,34 18,34.447 18,35 C18,35.553 18.447,36 19,36 C19.553,36 20,35.553 20,35 C20,34.447 19.553,34 19,34" id="Fill-109"></path>
                <path d="M27,34 C26.447,34 26,34.447 26,35 C26,35.553 26.447,36 27,36 C27.553,36 28,35.553 28,35 C28,34.447 27.553,34 27,34" id="Fill-111"></path>
            </g>
        </g>
    </g>
</svg>